<?xml version="1.0" encoding="utf-8" standalone="no"?>
<!DOCTYPE svg PUBLIC "-//W3C//DTD SVG 1.1//EN"
  "http://www.w3.org/Graphics/SVG/1.1/DTD/svg11.dtd">
<!-- Created with matplotlib (https://matplotlib.org/) -->
<svg height="306.378125pt" version="1.1" viewBox="0 0 490.3875 306.378125" width="490.3875pt" xmlns="http://www.w3.org/2000/svg" xmlns:xlink="http://www.w3.org/1999/xlink">
 <defs>
  <style type="text/css">
*{stroke-linecap:butt;stroke-linejoin:round;}
  </style>
 </defs>
 <g id="figure_1">
  <g id="patch_1">
   <path d="M 0 306.378125 
L 490.3875 306.378125 
L 490.3875 0 
L 0 0 
z
" style="fill:#ffffff;"/>
  </g>
  <g id="axes_1">
   <g id="patch_2">
    <path d="M 33.2875 282.5 
L 479.6875 282.5 
L 479.6875 10.7 
L 33.2875 10.7 
z
" style="fill:#ffffff;"/>
   </g>
   <g id="matplotlib.axis_1">
    <g id="xtick_1">
     <g id="line2d_1">
      <defs>
       <path d="M 0 0 
L 0 3.5 
" id="mb0602d75e2" style="stroke:#000000;stroke-width:0.8;"/>
      </defs>
      <g>
       <use style="stroke:#000000;stroke-width:0.8;" x="53.578409" xlink:href="#mb0602d75e2" y="282.5"/>
      </g>
     </g>
     <g id="text_1">
      <!-- 0 -->
      <defs>
       <path d="M 31.78125 66.40625 
Q 24.171875 66.40625 20.328125 58.90625 
Q 16.5 51.421875 16.5 36.375 
Q 16.5 21.390625 20.328125 13.890625 
Q 24.171875 6.390625 31.78125 6.390625 
Q 39.453125 6.390625 43.28125 13.890625 
Q 47.125 21.390625 47.125 36.375 
Q 47.125 51.421875 43.28125 58.90625 
Q 39.453125 66.40625 31.78125 66.40625 
z
M 31.78125 74.21875 
Q 44.046875 74.21875 50.515625 64.515625 
Q 56.984375 54.828125 56.984375 36.375 
Q 56.984375 17.96875 50.515625 8.265625 
Q 44.046875 -1.421875 31.78125 -1.421875 
Q 19.53125 -1.421875 13.0625 8.265625 
Q 6.59375 17.96875 6.59375 36.375 
Q 6.59375 54.828125 13.0625 64.515625 
Q 19.53125 74.21875 31.78125 74.21875 
z
" id="DejaVuSans-48"/>
      </defs>
      <g transform="translate(50.397159 297.098437)scale(0.1 -0.1)">
       <use xlink:href="#DejaVuSans-48"/>
      </g>
     </g>
    </g>
    <g id="xtick_2">
     <g id="line2d_2">
      <g>
       <use style="stroke:#000000;stroke-width:0.8;" x="136.737873" xlink:href="#mb0602d75e2" y="282.5"/>
      </g>
     </g>
     <g id="text_2">
      <!-- 200 -->
      <defs>
       <path d="M 19.1875 8.296875 
L 53.609375 8.296875 
L 53.609375 0 
L 7.328125 0 
L 7.328125 8.296875 
Q 12.9375 14.109375 22.625 23.890625 
Q 32.328125 33.6875 34.8125 36.53125 
Q 39.546875 41.84375 41.421875 45.53125 
Q 43.3125 49.21875 43.3125 52.78125 
Q 43.3125 58.59375 39.234375 62.25 
Q 35.15625 65.921875 28.609375 65.921875 
Q 23.96875 65.921875 18.8125 64.3125 
Q 13.671875 62.703125 7.8125 59.421875 
L 7.8125 69.390625 
Q 13.765625 71.78125 18.9375 73 
Q 24.125 74.21875 28.421875 74.21875 
Q 39.75 74.21875 46.484375 68.546875 
Q 53.21875 62.890625 53.21875 53.421875 
Q 53.21875 48.921875 51.53125 44.890625 
Q 49.859375 40.875 45.40625 35.40625 
Q 44.1875 33.984375 37.640625 27.21875 
Q 31.109375 20.453125 19.1875 8.296875 
z
" id="DejaVuSans-50"/>
      </defs>
      <g transform="translate(127.194123 297.098437)scale(0.1 -0.1)">
       <use xlink:href="#DejaVuSans-50"/>
       <use x="63.623047" xlink:href="#DejaVuSans-48"/>
       <use x="127.246094" xlink:href="#DejaVuSans-48"/>
      </g>
     </g>
    </g>
    <g id="xtick_3">
     <g id="line2d_3">
      <g>
       <use style="stroke:#000000;stroke-width:0.8;" x="219.897336" xlink:href="#mb0602d75e2" y="282.5"/>
      </g>
     </g>
     <g id="text_3">
      <!-- 400 -->
      <defs>
       <path d="M 37.796875 64.3125 
L 12.890625 25.390625 
L 37.796875 25.390625 
z
M 35.203125 72.90625 
L 47.609375 72.90625 
L 47.609375 25.390625 
L 58.015625 25.390625 
L 58.015625 17.1875 
L 47.609375 17.1875 
L 47.609375 0 
L 37.796875 0 
L 37.796875 17.1875 
L 4.890625 17.1875 
L 4.890625 26.703125 
z
" id="DejaVuSans-52"/>
      </defs>
      <g transform="translate(210.353586 297.098437)scale(0.1 -0.1)">
       <use xlink:href="#DejaVuSans-52"/>
       <use x="63.623047" xlink:href="#DejaVuSans-48"/>
       <use x="127.246094" xlink:href="#DejaVuSans-48"/>
      </g>
     </g>
    </g>
    <g id="xtick_4">
     <g id="line2d_4">
      <g>
       <use style="stroke:#000000;stroke-width:0.8;" x="303.0568" xlink:href="#mb0602d75e2" y="282.5"/>
      </g>
     </g>
     <g id="text_4">
      <!-- 600 -->
      <defs>
       <path d="M 33.015625 40.375 
Q 26.375 40.375 22.484375 35.828125 
Q 18.609375 31.296875 18.609375 23.390625 
Q 18.609375 15.53125 22.484375 10.953125 
Q 26.375 6.390625 33.015625 6.390625 
Q 39.65625 6.390625 43.53125 10.953125 
Q 47.40625 15.53125 47.40625 23.390625 
Q 47.40625 31.296875 43.53125 35.828125 
Q 39.65625 40.375 33.015625 40.375 
z
M 52.59375 71.296875 
L 52.59375 62.3125 
Q 48.875 64.0625 45.09375 64.984375 
Q 41.3125 65.921875 37.59375 65.921875 
Q 27.828125 65.921875 22.671875 59.328125 
Q 17.53125 52.734375 16.796875 39.40625 
Q 19.671875 43.65625 24.015625 45.921875 
Q 28.375 48.1875 33.59375 48.1875 
Q 44.578125 48.1875 50.953125 41.515625 
Q 57.328125 34.859375 57.328125 23.390625 
Q 57.328125 12.15625 50.6875 5.359375 
Q 44.046875 -1.421875 33.015625 -1.421875 
Q 20.359375 -1.421875 13.671875 8.265625 
Q 6.984375 17.96875 6.984375 36.375 
Q 6.984375 53.65625 15.1875 63.9375 
Q 23.390625 74.21875 37.203125 74.21875 
Q 40.921875 74.21875 44.703125 73.484375 
Q 48.484375 72.75 52.59375 71.296875 
z
" id="DejaVuSans-54"/>
      </defs>
      <g transform="translate(293.51305 297.098437)scale(0.1 -0.1)">
       <use xlink:href="#DejaVuSans-54"/>
       <use x="63.623047" xlink:href="#DejaVuSans-48"/>
       <use x="127.246094" xlink:href="#DejaVuSans-48"/>
      </g>
     </g>
    </g>
    <g id="xtick_5">
     <g id="line2d_5">
      <g>
       <use style="stroke:#000000;stroke-width:0.8;" x="386.216263" xlink:href="#mb0602d75e2" y="282.5"/>
      </g>
     </g>
     <g id="text_5">
      <!-- 800 -->
      <defs>
       <path d="M 31.78125 34.625 
Q 24.75 34.625 20.71875 30.859375 
Q 16.703125 27.09375 16.703125 20.515625 
Q 16.703125 13.921875 20.71875 10.15625 
Q 24.75 6.390625 31.78125 6.390625 
Q 38.8125 6.390625 42.859375 10.171875 
Q 46.921875 13.96875 46.921875 20.515625 
Q 46.921875 27.09375 42.890625 30.859375 
Q 38.875 34.625 31.78125 34.625 
z
M 21.921875 38.8125 
Q 15.578125 40.375 12.03125 44.71875 
Q 8.5 49.078125 8.5 55.328125 
Q 8.5 64.0625 14.71875 69.140625 
Q 20.953125 74.21875 31.78125 74.21875 
Q 42.671875 74.21875 48.875 69.140625 
Q 55.078125 64.0625 55.078125 55.328125 
Q 55.078125 49.078125 51.53125 44.71875 
Q 48 40.375 41.703125 38.8125 
Q 48.828125 37.15625 52.796875 32.3125 
Q 56.78125 27.484375 56.78125 20.515625 
Q 56.78125 9.90625 50.3125 4.234375 
Q 43.84375 -1.421875 31.78125 -1.421875 
Q 19.734375 -1.421875 13.25 4.234375 
Q 6.78125 9.90625 6.78125 20.515625 
Q 6.78125 27.484375 10.78125 32.3125 
Q 14.796875 37.15625 21.921875 38.8125 
z
M 18.3125 54.390625 
Q 18.3125 48.734375 21.84375 45.5625 
Q 25.390625 42.390625 31.78125 42.390625 
Q 38.140625 42.390625 41.71875 45.5625 
Q 45.3125 48.734375 45.3125 54.390625 
Q 45.3125 60.0625 41.71875 63.234375 
Q 38.140625 66.40625 31.78125 66.40625 
Q 25.390625 66.40625 21.84375 63.234375 
Q 18.3125 60.0625 18.3125 54.390625 
z
" id="DejaVuSans-56"/>
      </defs>
      <g transform="translate(376.672513 297.098437)scale(0.1 -0.1)">
       <use xlink:href="#DejaVuSans-56"/>
       <use x="63.623047" xlink:href="#DejaVuSans-48"/>
       <use x="127.246094" xlink:href="#DejaVuSans-48"/>
      </g>
     </g>
    </g>
    <g id="xtick_6">
     <g id="line2d_6">
      <g>
       <use style="stroke:#000000;stroke-width:0.8;" x="469.375727" xlink:href="#mb0602d75e2" y="282.5"/>
      </g>
     </g>
     <g id="text_6">
      <!-- 1000 -->
      <defs>
       <path d="M 12.40625 8.296875 
L 28.515625 8.296875 
L 28.515625 63.921875 
L 10.984375 60.40625 
L 10.984375 69.390625 
L 28.421875 72.90625 
L 38.28125 72.90625 
L 38.28125 8.296875 
L 54.390625 8.296875 
L 54.390625 0 
L 12.40625 0 
z
" id="DejaVuSans-49"/>
      </defs>
      <g transform="translate(456.650727 297.098437)scale(0.1 -0.1)">
       <use xlink:href="#DejaVuSans-49"/>
       <use x="63.623047" xlink:href="#DejaVuSans-48"/>
       <use x="127.246094" xlink:href="#DejaVuSans-48"/>
       <use x="190.869141" xlink:href="#DejaVuSans-48"/>
      </g>
     </g>
    </g>
   </g>
   <g id="matplotlib.axis_2">
    <g id="ytick_1">
     <g id="line2d_7">
      <defs>
       <path d="M 0 0 
L -3.5 0 
" id="me9bfbdbbca" style="stroke:#000000;stroke-width:0.8;"/>
      </defs>
      <g>
       <use style="stroke:#000000;stroke-width:0.8;" x="33.2875" xlink:href="#me9bfbdbbca" y="278.079859"/>
      </g>
     </g>
     <g id="text_7">
      <!-- 0 -->
      <g transform="translate(19.925 281.879077)scale(0.1 -0.1)">
       <use xlink:href="#DejaVuSans-48"/>
      </g>
     </g>
    </g>
    <g id="ytick_2">
     <g id="line2d_8">
      <g>
       <use style="stroke:#000000;stroke-width:0.8;" x="33.2875" xlink:href="#me9bfbdbbca" y="219.914512"/>
      </g>
     </g>
     <g id="text_8">
      <!-- 200 -->
      <g transform="translate(7.2 223.713731)scale(0.1 -0.1)">
       <use xlink:href="#DejaVuSans-50"/>
       <use x="63.623047" xlink:href="#DejaVuSans-48"/>
       <use x="127.246094" xlink:href="#DejaVuSans-48"/>
      </g>
     </g>
    </g>
    <g id="ytick_3">
     <g id="line2d_9">
      <g>
       <use style="stroke:#000000;stroke-width:0.8;" x="33.2875" xlink:href="#me9bfbdbbca" y="161.749166"/>
      </g>
     </g>
     <g id="text_9">
      <!-- 400 -->
      <g transform="translate(7.2 165.548385)scale(0.1 -0.1)">
       <use xlink:href="#DejaVuSans-52"/>
       <use x="63.623047" xlink:href="#DejaVuSans-48"/>
       <use x="127.246094" xlink:href="#DejaVuSans-48"/>
      </g>
     </g>
    </g>
    <g id="ytick_4">
     <g id="line2d_10">
      <g>
       <use style="stroke:#000000;stroke-width:0.8;" x="33.2875" xlink:href="#me9bfbdbbca" y="103.583819"/>
      </g>
     </g>
     <g id="text_10">
      <!-- 600 -->
      <g transform="translate(7.2 107.383038)scale(0.1 -0.1)">
       <use xlink:href="#DejaVuSans-54"/>
       <use x="63.623047" xlink:href="#DejaVuSans-48"/>
       <use x="127.246094" xlink:href="#DejaVuSans-48"/>
      </g>
     </g>
    </g>
    <g id="ytick_5">
     <g id="line2d_11">
      <g>
       <use style="stroke:#000000;stroke-width:0.8;" x="33.2875" xlink:href="#me9bfbdbbca" y="45.418473"/>
      </g>
     </g>
     <g id="text_11">
      <!-- 800 -->
      <g transform="translate(7.2 49.217692)scale(0.1 -0.1)">
       <use xlink:href="#DejaVuSans-56"/>
       <use x="63.623047" xlink:href="#DejaVuSans-48"/>
       <use x="127.246094" xlink:href="#DejaVuSans-48"/>
      </g>
     </g>
    </g>
   </g>
   <g id="line2d_12">
    <path clip-path="url(#p2e48136514)" d="M 53.578409 171.915691 
L 53.994206 151.094451 
L 54.410004 142.498599 
L 54.825801 143.571827 
L 55.241598 146.463859 
L 55.657396 146.585647 
L 56.073193 152.918089 
L 56.48899 149.689432 
L 56.904788 149.059493 
L 57.320585 148.977067 
L 57.736382 148.007547 
L 58.15218 141.090953 
L 58.567977 140.94325 
L 58.983774 141.748193 
L 59.399572 147.97069 
L 59.815369 162.640965 
L 60.231166 160.0607 
L 60.646963 162.397624 
L 61.062761 160.715249 
L 61.478558 165.176472 
L 61.894355 165.904137 
L 62.310153 163.153226 
L 62.72595 157.976247 
L 63.141747 156.17328 
L 63.557545 150.980137 
L 63.973342 169.614775 
L 64.389139 176.931138 
L 64.804937 176.826533 
L 65.220734 174.698926 
L 65.636531 175.320485 
L 66.052329 181.753984 
L 66.468126 183.197735 
L 66.883923 181.80559 
L 67.299721 182.450001 
L 67.715518 186.484051 
L 68.131315 194.482528 
L 68.547113 173.067601 
L 69.378707 175.542795 
L 69.794504 176.156401 
L 70.210302 177.468569 
L 70.626099 176.642043 
L 71.041896 177.734835 
L 71.457694 169.425905 
L 71.873491 171.182558 
L 72.289288 173.436899 
L 72.705086 181.631734 
L 73.120883 182.910418 
L 73.53668 185.029073 
L 73.952478 184.687057 
L 75.19987 193.329112 
L 75.615667 196.617251 
L 76.031464 196.216757 
L 76.447262 196.609287 
L 76.863059 198.027706 
L 77.278856 194.576729 
L 77.694654 196.758408 
L 78.110451 178.68287 
L 78.526248 191.106939 
L 78.942045 190.297248 
L 79.77364 185.506003 
L 80.189437 182.454869 
L 80.605235 182.26582 
L 81.021032 182.584859 
L 81.436829 189.582169 
L 81.852627 188.781844 
L 82.268424 187.155215 
L 82.684221 183.229666 
L 83.100019 182.893638 
L 83.515816 183.704385 
L 83.931613 188.385633 
L 84.347411 188.37026 
L 84.763208 184.088152 
L 85.179005 169.084641 
L 85.594803 167.681837 
L 86.426397 168.924135 
L 86.842194 164.434548 
L 87.257992 167.335572 
L 87.673789 166.978679 
L 88.505384 187.20656 
L 88.921181 186.605793 
L 89.336978 182.13692 
L 89.752776 183.65907 
L 90.168573 181.095672 
L 90.58437 180.063262 
L 91.000168 171.407985 
L 91.415965 160.364969 
L 91.831762 160.50246 
L 92.24756 160.91481 
L 92.663357 164.95169 
L 93.079154 165.51491 
L 93.494952 169.351548 
L 93.910749 171.565162 
L 94.326546 171.793324 
L 94.742344 173.826159 
L 95.158141 188.558807 
L 95.573938 190.922019 
L 95.989735 190.982458 
L 96.405533 190.03839 
L 96.82133 193.037372 
L 97.237127 192.774374 
L 97.652925 188.030917 
L 98.068722 194.799885 
L 98.484519 196.290085 
L 98.900317 196.116785 
L 99.316114 198.798561 
L 99.731911 202.601854 
L 100.147709 208.517055 
L 100.563506 208.266987 
L 101.395101 222.955999 
L 101.810898 223.014256 
L 102.226695 224.786154 
L 102.642493 223.93419 
L 103.05829 225.668609 
L 103.889885 219.096993 
L 104.721479 215.221626 
L 105.137276 217.642175 
L 105.968871 214.080357 
L 106.384668 215.867268 
L 106.800466 212.56435 
L 107.216263 213.215502 
L 107.63206 218.576207 
L 108.047858 219.962841 
L 108.879452 218.995062 
L 109.29525 220.644957 
L 109.711047 218.739521 
L 110.126844 218.429363 
L 110.542642 214.228587 
L 110.958439 217.2193 
L 111.374236 222.402772 
L 111.790034 225.639801 
L 112.205831 223.866253 
L 112.621628 224.952427 
L 113.037425 223.433777 
L 113.453223 224.183643 
L 113.86902 226.851057 
L 114.284817 226.34568 
L 114.700615 223.424546 
L 115.116412 223.495752 
L 115.532209 224.574149 
L 116.363804 218.339828 
L 116.779601 221.903378 
L 117.195399 215.579322 
L 117.611196 212.785512 
L 118.026993 204.118681 
L 118.442791 187.391563 
L 118.858588 182.943676 
L 119.274385 184.633534 
L 119.690183 179.178565 
L 120.10598 180.016801 
L 120.521777 182.542438 
L 120.937575 180.44229 
L 121.769169 183.428645 
L 122.184966 172.738054 
L 122.600764 173.320565 
L 123.432358 173.130141 
L 124.263953 164.847204 
L 124.67975 170.015122 
L 125.095548 170.276274 
L 125.511345 168.462594 
L 125.927142 170.211553 
L 126.34294 169.169487 
L 126.758737 167.615007 
L 127.174534 172.100839 
L 127.590332 172.246144 
L 128.006129 180.183402 
L 128.421926 197.378125 
L 128.837724 202.04916 
L 129.669318 200.896636 
L 130.085115 202.690396 
L 130.500913 209.903098 
L 130.91671 211.323758 
L 131.332507 209.422747 
L 131.748305 203.686571 
L 132.164102 218.870431 
L 132.579899 216.703503 
L 132.995697 210.316139 
L 133.411494 213.917115 
L 133.827291 214.203749 
L 134.243089 218.118504 
L 134.658886 217.219115 
L 135.074683 215.704155 
L 135.490481 215.896815 
L 135.906278 218.154636 
L 136.322075 214.132498 
L 136.737873 212.929431 
L 137.15367 213.247457 
L 137.569467 213.900408 
L 137.985265 210.704664 
L 138.401062 209.982074 
L 138.816859 212.240444 
L 139.232656 209.449496 
L 139.648454 214.145633 
L 140.064251 214.092748 
L 140.480048 209.448557 
L 140.895846 209.673261 
L 141.311643 204.403984 
L 141.72744 207.022569 
L 142.143238 201.515779 
L 142.559035 199.834306 
L 142.974832 201.231633 
L 143.39063 198.253684 
L 143.806427 198.807797 
L 144.222224 200.237556 
L 144.638022 196.377529 
L 145.053819 195.417707 
L 145.469616 194.949975 
L 145.885414 187.116599 
L 146.301211 197.292712 
L 146.717008 203.180061 
L 147.132806 204.236576 
L 147.548603 204.733071 
L 147.9644 204.556424 
L 148.380197 202.970083 
L 148.795995 200.643595 
L 149.211792 195.257038 
L 149.627589 195.648304 
L 150.043387 193.685194 
L 150.459184 194.583745 
L 150.874981 191.440966 
L 151.290779 196.763871 
L 151.706576 199.314239 
L 152.122373 202.923929 
L 152.538171 205.550306 
L 152.953968 209.740977 
L 153.369765 210.570921 
L 153.785563 212.254825 
L 154.20136 212.850925 
L 154.617157 189.67181 
L 155.032955 186.899383 
L 155.448752 187.388889 
L 155.864549 191.900604 
L 156.696144 182.42553 
L 157.111941 181.495568 
L 157.943536 188.296816 
L 158.359333 183.419045 
L 158.77513 183.057832 
L 159.190928 191.189288 
L 159.606725 193.709199 
L 160.022522 193.20004 
L 160.43832 194.425308 
L 160.854117 194.470808 
L 161.269914 195.904219 
L 162.101509 192.554835 
L 162.933104 185.724344 
L 163.348901 186.214315 
L 163.764698 185.36843 
L 164.180496 184.786879 
L 164.596293 211.008966 
L 165.01209 214.033595 
L 165.427887 215.316212 
L 165.843685 215.811712 
L 166.259482 220.020056 
L 166.675279 221.425528 
L 167.091077 223.414897 
L 167.506874 223.155402 
L 167.922671 221.564633 
L 168.338469 217.828518 
L 168.754266 215.610331 
L 169.170063 214.731724 
L 169.585861 211.373445 
L 170.001658 203.817053 
L 170.417455 203.517204 
L 170.833253 200.656761 
L 171.24905 190.155486 
L 171.664847 189.456976 
L 172.080645 190.767296 
L 172.496442 195.28601 
L 172.912239 201.470607 
L 173.328037 192.220197 
L 173.743834 192.043305 
L 174.159631 191.261036 
L 174.575428 193.248387 
L 174.991226 193.66786 
L 175.407023 191.664797 
L 175.82282 195.019342 
L 176.238618 195.144774 
L 176.654415 195.519222 
L 177.070212 191.942384 
L 177.901807 187.015731 
L 178.317604 197.700679 
L 178.733402 191.822198 
L 179.149199 188.004913 
L 179.564996 187.246051 
L 179.980794 195.390831 
L 180.396591 195.224346 
L 180.812388 198.352089 
L 181.228186 203.432345 
L 181.643983 204.71906 
L 182.05978 204.452364 
L 182.475577 204.852894 
L 182.891375 197.722041 
L 183.307172 194.315133 
L 183.722969 198.408296 
L 184.138767 200.371977 
L 184.554564 200.92254 
L 184.970361 201.05848 
L 185.386159 201.928572 
L 185.801956 200.491389 
L 186.217753 200.432163 
L 187.049348 197.617257 
L 187.465145 197.290041 
L 187.880943 203.191388 
L 188.29674 205.308645 
L 188.712537 215.572878 
L 189.128335 217.657847 
L 189.544132 218.137444 
L 189.959929 217.328727 
L 190.791524 220.411448 
L 191.207321 225.531564 
L 191.623118 225.73102 
L 192.038916 214.769892 
L 192.454713 210.599456 
L 192.87051 215.930371 
L 193.286308 230.080144 
L 193.702105 226.294057 
L 194.117902 214.263875 
L 195.365294 201.729975 
L 195.781092 194.904738 
L 196.196889 196.370901 
L 196.612686 199.799425 
L 197.028484 198.741516 
L 197.444281 196.045189 
L 197.860078 186.733559 
L 198.275876 183.492498 
L 198.691673 182.151644 
L 199.523268 187.03154 
L 199.939065 189.421632 
L 200.354862 186.875044 
L 200.770659 187.057595 
L 201.186457 185.590471 
L 201.602254 185.41052 
L 202.018051 197.104213 
L 202.433849 198.722188 
L 202.849646 199.362245 
L 203.265443 198.320384 
L 203.681241 200.805477 
L 204.097038 213.019339 
L 204.512835 212.070398 
L 205.760227 230.728349 
L 206.176025 231.564902 
L 206.591822 227.790709 
L 207.007619 232.747784 
L 207.423417 235.424137 
L 207.839214 243.735227 
L 208.255011 243.54426 
L 208.670808 234.645536 
L 209.502403 238.028157 
L 209.9182 235.223663 
L 210.333998 237.313939 
L 210.749795 237.04497 
L 211.165592 237.628284 
L 211.58139 239.281222 
L 211.997187 239.363474 
L 212.412984 237.448693 
L 212.828782 233.40668 
L 213.660376 231.624145 
L 214.076174 227.856462 
L 214.491971 229.406424 
L 214.907768 229.553897 
L 215.323566 229.246959 
L 215.739363 231.674169 
L 216.15516 228.234763 
L 216.570958 229.856639 
L 216.986755 225.888014 
L 217.402552 224.188586 
L 217.818349 223.474736 
L 218.234147 223.306472 
L 218.649944 234.49098 
L 219.065741 232.629735 
L 219.481539 232.930717 
L 220.313133 234.551717 
L 220.728931 236.625987 
L 221.144728 238.130029 
L 221.560525 236.014702 
L 221.976323 228.992307 
L 222.39212 233.796398 
L 222.807917 237.135882 
L 223.223715 237.088219 
L 223.639512 234.165866 
L 224.055309 239.905626 
L 224.471107 243.278404 
L 224.886904 234.421099 
L 225.302701 235.394754 
L 226.134296 238.443123 
L 226.550093 234.114752 
L 226.96589 237.25676 
L 227.381688 242.441046 
L 227.797485 239.705475 
L 228.213282 242.568137 
L 228.62908 240.302222 
L 229.044877 239.8005 
L 229.460674 237.042734 
L 229.876472 237.238369 
L 230.292269 235.68035 
L 231.123864 225.213559 
L 231.539661 226.171762 
L 231.955458 231.305493 
L 232.371256 224.06072 
L 232.787053 224.759345 
L 233.20285 223.986266 
L 233.618648 225.102434 
L 234.034445 223.752155 
L 234.450242 225.140148 
L 234.866039 235.764773 
L 235.281837 236.553428 
L 235.697634 234.206448 
L 236.113431 234.029744 
L 236.529229 238.206935 
L 236.945026 238.566253 
L 237.360823 238.521208 
L 237.776621 240.219908 
L 238.608215 233.724583 
L 239.024013 230.033017 
L 239.43981 232.621187 
L 239.855607 232.017414 
L 240.271405 230.831771 
L 240.687202 231.528629 
L 241.102999 234.41832 
L 241.518797 234.893447 
L 241.934594 235.013542 
L 242.350391 241.883547 
L 242.766189 240.887978 
L 243.181986 243.09393 
L 243.597783 248.502163 
L 244.01358 250.150497 
L 244.429378 248.10069 
L 244.845175 242.88972 
L 245.67677 241.061003 
L 246.092567 237.321926 
L 246.508364 237.033159 
L 246.924162 239.349535 
L 247.339959 235.935395 
L 247.755756 234.470252 
L 248.587351 239.327091 
L 249.003148 241.088802 
L 249.418946 240.058584 
L 249.834743 237.318715 
L 250.25054 236.788094 
L 250.666338 242.443153 
L 251.082135 243.843132 
L 251.497932 243.362604 
L 251.91373 243.699318 
L 252.329527 241.442862 
L 252.745324 242.152449 
L 253.161121 239.690231 
L 253.576919 235.377387 
L 253.992716 229.591401 
L 254.408513 228.615441 
L 254.824311 230.897894 
L 255.240108 229.706854 
L 255.655905 230.107625 
L 256.071703 232.481281 
L 256.4875 236.141813 
L 256.903297 226.317154 
L 257.319095 227.946457 
L 257.734892 228.821417 
L 258.150689 227.766947 
L 258.566487 230.888361 
L 258.982284 232.309721 
L 259.398081 231.234738 
L 259.813879 230.692868 
L 260.229676 225.24804 
L 260.645473 221.384892 
L 261.477068 219.776714 
L 261.892865 219.132746 
L 262.72446 216.208146 
L 263.140257 208.47336 
L 263.556054 208.823809 
L 263.971852 208.063913 
L 264.387649 211.178012 
L 264.803446 210.48646 
L 265.219244 210.137397 
L 265.635041 210.295514 
L 266.050838 211.257557 
L 266.466636 210.223127 
L 266.882433 215.5168 
L 267.29823 217.12985 
L 267.714028 219.445149 
L 268.129825 190.495885 
L 268.545622 186.38531 
L 268.96142 188.723177 
L 269.377217 190.027418 
L 270.208811 202.267138 
L 270.624609 203.693093 
L 271.040406 204.446341 
L 271.456203 201.933701 
L 271.872001 202.202828 
L 272.287798 207.527912 
L 272.703595 206.680535 
L 273.119393 215.509801 
L 273.53519 213.231519 
L 273.950987 214.021293 
L 274.782582 203.669332 
L 275.198379 205.461897 
L 275.614177 205.60524 
L 276.029974 206.785019 
L 276.445771 209.31884 
L 276.861569 213.92402 
L 277.693163 211.206725 
L 278.108961 236.258856 
L 278.524758 226.397355 
L 278.940555 222.416821 
L 279.356352 219.99666 
L 279.77215 213.068136 
L 280.187947 212.537543 
L 280.603744 213.937715 
L 281.019542 213.203044 
L 281.435339 215.285721 
L 282.266934 199.987023 
L 282.682731 203.415216 
L 283.098528 199.203227 
L 283.514326 197.320316 
L 283.930123 200.172879 
L 284.34592 203.950137 
L 284.761718 210.192262 
L 285.177515 207.753668 
L 285.593312 209.341301 
L 286.00911 204.487166 
L 286.424907 201.30579 
L 286.840704 202.284606 
L 287.256501 202.476406 
L 287.672299 200.469247 
L 288.088096 205.018879 
L 288.503893 217.056817 
L 288.919691 210.319115 
L 289.335488 213.113533 
L 289.751285 220.059822 
L 290.167083 194.865031 
L 290.58288 194.478626 
L 290.998677 194.905856 
L 291.414475 197.555879 
L 291.830272 201.525521 
L 292.246069 207.864678 
L 293.077664 199.507115 
L 293.909259 195.598152 
L 294.325056 195.647481 
L 294.740853 199.481382 
L 295.156651 201.442812 
L 295.572448 192.999434 
L 295.988245 190.01822 
L 296.404042 190.458058 
L 296.81984 184.859134 
L 297.651434 187.021851 
L 298.067232 187.02327 
L 298.483029 189.771527 
L 298.898826 194.708675 
L 299.314624 194.07691 
L 299.730421 192.543663 
L 300.146218 218.056685 
L 300.562016 219.581112 
L 300.977813 217.894185 
L 301.39361 215.647292 
L 301.809408 218.148469 
L 302.225205 214.039192 
L 302.641002 189.427488 
L 303.0568 200.089224 
L 303.472597 206.650274 
L 303.888394 208.375045 
L 304.304192 208.28782 
L 304.719989 203.932122 
L 305.135786 198.137829 
L 305.967381 209.599216 
L 306.383178 211.06328 
L 306.798975 210.872852 
L 307.214773 208.170863 
L 307.63057 210.76623 
L 308.046367 212.316615 
L 308.462165 210.956106 
L 308.877962 205.92741 
L 309.293759 202.964149 
L 309.709557 204.026472 
L 310.125354 198.432732 
L 310.541151 194.589328 
L 310.956949 195.733915 
L 311.372746 197.499694 
L 311.788543 200.981053 
L 312.204341 202.866363 
L 312.620138 231.282528 
L 313.035935 230.190162 
L 313.451732 230.608968 
L 314.283327 224.824073 
L 314.699124 220.416032 
L 315.114922 225.408485 
L 315.530719 226.648211 
L 315.946516 228.799719 
L 316.362314 226.230721 
L 316.778111 232.845302 
L 317.193908 234.009053 
L 317.609706 224.004911 
L 318.025503 220.730646 
L 318.4413 221.31769 
L 318.857098 230.848184 
L 319.272895 234.874243 
L 319.688692 234.738073 
L 320.10449 239.284864 
L 320.520287 237.634827 
L 320.936084 232.827597 
L 321.351882 233.177986 
L 321.767679 228.325415 
L 322.183476 226.314157 
L 322.599273 227.09094 
L 323.015071 226.023456 
L 323.430868 223.495449 
L 323.846665 227.287545 
L 324.262463 224.586958 
L 324.67826 229.562932 
L 325.094057 228.820861 
L 325.509855 227.821172 
L 325.925652 227.981547 
L 326.341449 211.827839 
L 326.757247 209.045462 
L 327.173044 212.071673 
L 327.588841 217.369509 
L 328.004639 217.452306 
L 328.420436 218.030211 
L 328.836233 219.026746 
L 329.252031 218.94538 
L 329.667828 218.395697 
L 330.083625 221.200542 
L 330.499423 225.067327 
L 330.91522 230.330709 
L 331.331017 228.117663 
L 331.746814 231.196879 
L 332.162612 235.369696 
L 332.578409 230.556983 
L 332.994206 232.353047 
L 333.410004 235.957066 
L 333.825801 238.022476 
L 334.241598 245.045067 
L 334.657396 244.070464 
L 335.073193 246.893994 
L 335.48899 247.286235 
L 335.904788 246.956911 
L 336.320585 257.711802 
L 336.736382 254.048465 
L 337.15218 252.005859 
L 337.567977 237.891616 
L 337.983774 231.731002 
L 338.399572 230.893797 
L 338.815369 226.443187 
L 339.231166 225.632712 
L 339.646963 225.178574 
L 340.062761 217.817087 
L 340.478558 219.450289 
L 340.894355 212.837051 
L 341.310153 213.652904 
L 341.72595 215.616094 
L 342.141747 214.159715 
L 342.557545 212.156005 
L 342.973342 209.161413 
L 343.389139 197.000707 
L 343.804937 193.530904 
L 344.220734 192.85059 
L 344.636531 196.04924 
L 345.052329 191.579185 
L 345.468126 192.796223 
L 345.883923 193.461759 
L 346.299721 202.136111 
L 346.715518 203.877699 
L 347.131315 204.276381 
L 347.547113 220.770877 
L 347.96291 228.150434 
L 348.378707 223.835311 
L 348.794504 227.094593 
L 349.210302 226.887427 
L 349.626099 227.773567 
L 350.041896 231.006502 
L 350.457694 226.45872 
L 350.873491 230.601431 
L 351.289288 229.370361 
L 351.705086 227.785021 
L 352.53668 231.045786 
L 352.952478 230.539043 
L 353.368275 241.468019 
L 353.784072 240.258128 
L 354.19987 236.038199 
L 354.615667 236.485431 
L 355.031464 236.312536 
L 355.447262 232.028149 
L 355.863059 221.571806 
L 356.278856 215.927829 
L 356.694654 219.698859 
L 357.110451 218.249546 
L 357.526248 218.948176 
L 357.942045 217.848819 
L 358.357843 220.674325 
L 359.189437 212.653214 
L 359.605235 212.927114 
L 360.436829 217.903791 
L 360.852627 221.909667 
L 361.268424 224.482816 
L 361.684221 225.091229 
L 362.100019 219.987113 
L 362.515816 221.81203 
L 362.931613 224.853119 
L 363.347411 222.033577 
L 363.763208 224.495057 
L 364.179005 227.662763 
L 364.594803 217.300329 
L 365.0106 218.845124 
L 365.426397 221.064184 
L 365.842194 232.93392 
L 366.257992 232.106583 
L 366.673789 228.648969 
L 367.089586 230.364212 
L 367.505384 230.63412 
L 367.921181 232.7258 
L 368.336978 231.293487 
L 368.752776 230.422822 
L 369.168573 230.057389 
L 369.58437 229.335724 
L 370.000168 227.576803 
L 370.415965 229.48601 
L 370.831762 227.821922 
L 371.24756 224.782943 
L 371.663357 223.973403 
L 372.079154 227.797447 
L 372.494952 227.92818 
L 372.910749 224.431556 
L 373.326546 229.780758 
L 373.742344 230.566602 
L 374.158141 229.548309 
L 374.573938 232.221613 
L 374.989735 231.727272 
L 375.405533 234.504422 
L 375.82133 234.478781 
L 376.237127 236.159377 
L 377.068722 238.057144 
L 377.484519 236.879637 
L 377.900317 233.589823 
L 378.316114 235.540997 
L 378.731911 242.767867 
L 379.147709 246.437389 
L 379.979303 242.288687 
L 380.395101 239.875681 
L 381.226695 247.93351 
L 381.642493 249.488121 
L 382.05829 249.194527 
L 382.474087 248.389883 
L 382.889885 249.862369 
L 383.305682 249.533902 
L 383.721479 250.091039 
L 384.137276 252.883062 
L 384.553074 258.29621 
L 384.968871 260.097239 
L 385.384668 259.251969 
L 385.800466 257.075618 
L 386.63206 264.072244 
L 387.047858 262.599697 
L 387.463655 265.693978 
L 387.879452 254.609638 
L 388.29525 254.481263 
L 388.711047 252.922824 
L 389.126844 254.267717 
L 389.542642 254.164175 
L 389.958439 259.131622 
L 390.374236 261.745672 
L 390.790034 252.422488 
L 391.205831 249.039908 
L 391.621628 249.019043 
L 392.453223 257.64944 
L 392.86902 250.967034 
L 393.284817 248.365984 
L 393.700615 244.748094 
L 394.116412 239.044509 
L 394.532209 239.787149 
L 394.948007 241.037188 
L 395.363804 239.95229 
L 395.779601 240.067746 
L 396.195399 238.611987 
L 396.611196 236.022301 
L 397.026993 237.606017 
L 397.442791 234.141256 
L 397.858588 245.77315 
L 398.274385 247.75381 
L 398.690183 246.791052 
L 399.10598 248.574565 
L 399.521777 252.076552 
L 399.937575 252.463928 
L 400.353372 246.851709 
L 401.184966 254.48852 
L 401.600764 255.064619 
L 402.432358 251.476982 
L 402.848156 261.465945 
L 403.263953 262.555391 
L 403.67975 259.573197 
L 404.095548 264.750317 
L 404.511345 264.460405 
L 404.927142 261.030336 
L 405.34294 263.155691 
L 405.758737 263.830879 
L 406.174534 262.639799 
L 407.006129 263.597237 
L 407.421926 265.932139 
L 407.837724 270.145455 
L 408.253521 266.651205 
L 408.669318 266.141959 
L 409.085115 263.073696 
L 409.500913 262.47704 
L 409.91671 262.737941 
L 410.332507 262.648513 
L 410.748305 260.13826 
L 411.164102 259.503215 
L 411.579899 260.659298 
L 411.995697 258.973985 
L 412.411494 241.748488 
L 412.827291 240.666946 
L 413.243089 237.931734 
L 413.658886 246.257908 
L 414.490481 240.889327 
L 414.906278 244.765513 
L 415.322075 243.458656 
L 415.737873 244.634138 
L 416.15367 243.882569 
L 416.569467 239.426064 
L 416.985265 236.930145 
L 417.401062 235.794004 
L 417.816859 215.555979 
L 418.648454 222.538667 
L 419.064251 223.108684 
L 419.480048 223.884663 
L 419.895846 221.628853 
L 420.311643 223.981692 
L 420.72744 227.709245 
L 421.143238 225.250773 
L 421.559035 221.02948 
L 421.974832 220.601897 
L 422.39063 238.131253 
L 422.806427 238.077559 
L 423.222224 240.788377 
L 423.638022 238.516473 
L 424.053819 240.503727 
L 424.469616 244.052671 
L 425.301211 239.197519 
L 425.717008 235.385977 
L 426.132806 238.275316 
L 426.548603 244.259696 
L 426.9644 244.05848 
L 427.380197 246.220666 
L 427.795995 252.584789 
L 428.211792 246.026004 
L 428.627589 246.950819 
L 429.043387 248.419732 
L 429.459184 248.599782 
L 429.874981 250.378206 
L 430.290779 248.196848 
L 430.706576 249.579775 
L 431.122373 252.371624 
L 431.953968 252.967781 
L 432.369765 253.844768 
L 432.785563 254.154287 
L 433.20136 250.096904 
L 433.617157 248.748859 
L 434.032955 249.063558 
L 434.448752 248.3344 
L 434.864549 250.516075 
L 435.280346 248.71462 
L 435.696144 250.8812 
L 436.111941 250.9271 
L 436.527738 248.665788 
L 436.943536 248.25337 
L 437.359333 247.295598 
L 437.77513 257.050109 
L 438.190928 260.639213 
L 438.606725 256.516574 
L 439.022522 242.415152 
L 439.43832 239.218316 
L 439.854117 239.474401 
L 440.269914 242.890921 
L 440.685712 241.55057 
L 441.101509 241.573268 
L 441.517306 243.944387 
L 441.933104 244.925728 
L 442.348901 240.810991 
L 442.764698 239.005259 
L 443.180496 241.762467 
L 443.596293 243.707128 
L 444.01209 243.763355 
L 444.843685 239.818877 
L 445.259482 241.753184 
L 445.675279 238.49824 
L 446.091077 238.728258 
L 446.506874 238.406382 
L 446.922671 237.124174 
L 447.338469 234.60656 
L 447.754266 237.930983 
L 448.170063 238.432781 
L 448.585861 242.137959 
L 449.001658 256.546558 
L 449.417455 260.091161 
L 449.833253 259.42609 
L 450.24905 252.042597 
L 450.664847 252.80851 
L 451.080645 252.565834 
L 451.496442 252.625096 
L 451.912239 252.439475 
L 452.328037 252.902337 
L 452.743834 256.126091 
L 453.159631 258.210933 
L 453.575428 257.880785 
L 453.991226 256.381449 
L 454.407023 253.781226 
L 454.82282 256.483176 
L 455.238618 256.04213 
L 455.654415 261.373159 
L 456.070212 260.409827 
L 456.48601 260.166789 
L 456.901807 260.540767 
L 457.733402 252.346057 
L 458.149199 251.928668 
L 458.564996 247.752988 
L 458.980794 239.500304 
L 459.396591 233.827091 
L 459.396591 233.827091 
" style="fill:none;stroke:#1f77b4;stroke-linecap:square;stroke-width:1.5;"/>
   </g>
   <g id="line2d_13">
    <path clip-path="url(#p2e48136514)" d="M 53.578409 189.822725 
L 53.994206 190.337344 
L 54.410004 201.238176 
L 54.825801 201.740733 
L 55.241598 206.001704 
L 55.657396 206.17049 
L 56.073193 209.379284 
L 56.48899 211.199127 
L 56.904788 206.849614 
L 57.320585 205.912584 
L 58.15218 195.360463 
L 58.567977 197.898619 
L 58.983774 199.080858 
L 59.399572 196.697922 
L 59.815369 190.512612 
L 60.231166 191.164926 
L 60.646963 192.849816 
L 61.062761 192.311392 
L 61.478558 196.845205 
L 61.894355 195.816913 
L 62.72595 199.050197 
L 63.141747 196.845022 
L 63.557545 195.839551 
L 63.973342 196.332945 
L 64.389139 195.121817 
L 64.804937 195.608004 
L 66.052329 185.467651 
L 66.468126 184.17554 
L 66.883923 192.394168 
L 67.299721 191.746665 
L 67.715518 192.713691 
L 68.131315 196.499236 
L 68.547113 198.169418 
L 68.96291 197.995005 
L 69.378707 194.172292 
L 69.794504 202.86563 
L 70.210302 201.294706 
L 70.626099 201.624279 
L 71.041896 205.601685 
L 71.457694 207.301575 
L 71.873491 209.761767 
L 72.289288 199.47903 
L 72.705086 202.539206 
L 73.952478 194.243411 
L 74.368275 195.360256 
L 74.784072 191.29161 
L 75.19987 193.786457 
L 76.031464 192.482167 
L 76.447262 187.709664 
L 76.863059 188.724968 
L 77.278856 191.891506 
L 77.694654 196.684147 
L 78.110451 193.095545 
L 78.526248 192.89122 
L 78.942045 194.674893 
L 79.357843 198.948593 
L 79.77364 196.096411 
L 80.189437 198.460463 
L 80.605235 198.248485 
L 81.436829 195.151177 
L 81.852627 195.847421 
L 82.268424 205.911093 
L 82.684221 206.708322 
L 83.100019 210.63942 
L 83.515816 211.824936 
L 83.931613 214.724869 
L 84.347411 216.03141 
L 84.763208 217.715131 
L 85.179005 216.557671 
L 85.594803 220.318478 
L 86.0106 222.165993 
L 86.426397 228.66269 
L 86.842194 226.77125 
L 87.257992 220.931851 
L 87.673789 220.777423 
L 88.089586 226.201809 
L 88.505384 225.102633 
L 89.336978 218.773337 
L 89.752776 219.960296 
L 90.168573 214.782778 
L 90.58437 213.63378 
L 91.000168 213.116469 
L 91.415965 214.693413 
L 91.831762 212.566813 
L 92.24756 193.176914 
L 92.663357 193.935617 
L 93.494952 186.250182 
L 93.910749 187.800546 
L 94.326546 189.972729 
L 94.742344 188.396169 
L 95.158141 183.995152 
L 95.573938 182.803395 
L 95.989735 181.258987 
L 96.405533 180.431586 
L 96.82133 181.728356 
L 97.237127 183.659887 
L 98.068722 182.548974 
L 98.484519 183.130904 
L 98.900317 184.818932 
L 99.316114 187.921077 
L 99.731911 189.098181 
L 100.147709 180.848084 
L 100.563506 182.573233 
L 100.979303 180.719191 
L 101.395101 180.267934 
L 101.810898 178.436939 
L 102.226695 195.898116 
L 102.642493 193.251626 
L 103.05829 198.023142 
L 103.474087 199.440853 
L 103.889885 199.575618 
L 104.305682 195.944803 
L 104.721479 197.027922 
L 105.137276 202.733267 
L 105.553074 204.928185 
L 105.968871 202.789434 
L 106.384668 203.482847 
L 106.800466 203.797333 
L 107.216263 200.24029 
L 107.63206 200.197576 
L 108.047858 199.533522 
L 108.879452 197.387371 
L 109.29525 194.671725 
L 109.711047 193.422766 
L 110.126844 206.144405 
L 110.542642 204.789315 
L 110.958439 204.826435 
L 111.374236 206.363269 
L 111.790034 211.384556 
L 112.621628 218.204428 
L 113.037425 218.117482 
L 113.453223 218.63065 
L 113.86902 213.896952 
L 114.284817 214.12921 
L 114.700615 213.749974 
L 115.116412 211.443768 
L 115.532209 210.168037 
L 115.948007 213.449826 
L 116.363804 213.089207 
L 116.779601 187.047577 
L 117.195399 186.531639 
L 117.611196 187.560349 
L 118.026993 184.302258 
L 118.442791 185.831338 
L 119.690183 193.116034 
L 120.10598 192.0128 
L 120.521777 193.299348 
L 120.937575 194.08977 
L 121.353372 194.380005 
L 121.769169 193.290437 
L 122.184966 190.954368 
L 122.600764 190.688485 
L 123.016561 190.060333 
L 123.432358 193.57788 
L 124.263953 201.720497 
L 124.67975 197.462154 
L 125.095548 200.447277 
L 125.511345 199.217557 
L 125.927142 201.309807 
L 126.34294 200.532267 
L 126.758737 225.333014 
L 127.174534 232.76724 
L 127.590332 231.556721 
L 128.421926 235.776091 
L 128.837724 234.621673 
L 129.253521 232.730745 
L 129.669318 229.370292 
L 130.085115 230.383288 
L 131.332507 229.267789 
L 131.748305 228.792583 
L 132.164102 224.744565 
L 132.579899 227.564272 
L 132.995697 222.758268 
L 133.411494 221.027743 
L 133.827291 220.116327 
L 134.243089 215.032687 
L 134.658886 219.393378 
L 135.074683 212.745816 
L 135.490481 216.473216 
L 135.906278 210.763492 
L 136.322075 212.849445 
L 136.737873 209.29098 
L 137.15367 204.412473 
L 137.569467 203.119788 
L 137.985265 203.673263 
L 138.401062 201.127906 
L 138.816859 199.299407 
L 139.648454 205.545202 
L 140.064251 199.32142 
L 140.480048 198.163318 
L 140.895846 193.93483 
L 141.72744 190.600486 
L 142.143238 194.293611 
L 142.559035 193.991021 
L 142.974832 198.682749 
L 143.39063 193.374809 
L 143.806427 194.134355 
L 144.222224 193.777982 
L 144.638022 196.755072 
L 145.053819 201.998926 
L 145.469616 201.237626 
L 145.885414 206.193884 
L 146.301211 206.062837 
L 146.717008 206.685438 
L 147.132806 201.796478 
L 147.548603 199.402945 
L 147.9644 201.107567 
L 148.380197 195.541043 
L 149.211792 191.572327 
L 149.627589 185.886805 
L 150.043387 194.856866 
L 150.459184 195.531507 
L 150.874981 203.332664 
L 151.290779 204.725749 
L 151.706576 203.235177 
L 152.122373 205.295533 
L 152.538171 196.435342 
L 152.953968 197.865344 
L 153.369765 203.874279 
L 153.785563 202.081071 
L 154.20136 207.078599 
L 154.617157 204.835118 
L 155.032955 208.077705 
L 155.448752 207.882934 
L 155.864549 205.698844 
L 156.280346 206.252525 
L 156.696144 210.216043 
L 157.111941 218.390311 
L 157.527738 222.105543 
L 157.943536 220.296336 
L 158.359333 226.088924 
L 158.77513 228.628969 
L 159.190928 229.580326 
L 159.606725 229.12445 
L 160.022522 227.56773 
L 160.43832 227.150447 
L 161.269914 211.119803 
L 161.685712 213.137649 
L 162.101509 206.658891 
L 162.517306 211.247756 
L 162.933104 210.521761 
L 163.348901 208.54113 
L 163.764698 202.634719 
L 164.180496 200.073947 
L 164.596293 200.643402 
L 165.01209 191.606763 
L 165.427887 190.600071 
L 165.843685 191.225941 
L 166.259482 191.482448 
L 166.675279 193.199799 
L 167.091077 192.105528 
L 167.506874 193.93152 
L 167.922671 193.174728 
L 168.338469 191.248011 
L 168.754266 191.840809 
L 169.170063 189.175775 
L 169.585861 196.206101 
L 170.001658 194.98374 
L 170.417455 194.889661 
L 170.833253 197.739478 
L 171.24905 199.129037 
L 171.664847 201.068539 
L 172.080645 202.079174 
L 172.496442 199.350604 
L 172.912239 200.435491 
L 173.328037 202.10179 
L 173.743834 207.788255 
L 174.159631 210.112887 
L 174.575428 210.854519 
L 174.991226 216.346207 
L 175.407023 216.044449 
L 175.82282 217.565112 
L 176.238618 218.026727 
L 176.654415 212.910648 
L 177.070212 215.234793 
L 177.48601 212.259975 
L 177.901807 215.203417 
L 178.317604 217.025153 
L 178.733402 218.215752 
L 179.564996 213.136686 
L 179.980794 216.893875 
L 180.396591 217.67798 
L 180.812388 220.618841 
L 181.228186 228.069772 
L 181.643983 220.60565 
L 182.05978 217.903713 
L 182.475577 222.512447 
L 182.891375 219.805332 
L 183.307172 220.105082 
L 183.722969 222.417632 
L 184.138767 219.596929 
L 184.554564 213.1363 
L 184.970361 210.517824 
L 185.386159 214.177407 
L 185.801956 212.264836 
L 186.217753 208.534289 
L 186.633551 213.350982 
L 187.465145 218.8644 
L 187.880943 215.538344 
L 188.29674 216.053618 
L 188.712537 216.39174 
L 189.128335 220.913272 
L 189.544132 218.801412 
L 189.959929 215.423119 
L 190.375727 215.655297 
L 190.791524 197.096226 
L 191.207321 197.297631 
L 192.038916 213.254434 
L 192.454713 213.878268 
L 192.87051 215.819336 
L 193.286308 214.626001 
L 193.702105 215.5855 
L 194.117902 204.216952 
L 194.5337 209.221651 
L 194.949497 211.444755 
L 195.781092 199.020553 
L 196.196889 201.317335 
L 196.612686 190.310114 
L 197.028484 187.935583 
L 197.444281 189.561677 
L 197.860078 193.815392 
L 198.275876 192.758424 
L 198.691673 193.341328 
L 199.10747 192.596334 
L 199.523268 191.439054 
L 199.939065 191.533935 
L 200.354862 190.875466 
L 200.770659 210.721102 
L 201.186457 207.97346 
L 201.602254 207.560354 
L 202.018051 202.509439 
L 202.433849 199.225984 
L 202.849646 198.46239 
L 203.265443 189.25786 
L 203.681241 187.870236 
L 204.097038 197.797664 
L 204.512835 197.58405 
L 204.928633 198.472031 
L 205.760227 208.120619 
L 206.176025 206.789629 
L 206.591822 217.154281 
L 207.007619 218.243058 
L 207.839214 207.248038 
L 208.255011 204.887057 
L 208.670808 198.059286 
L 209.086606 198.42492 
L 209.502403 192.238254 
L 209.9182 182.881894 
L 210.333998 180.499356 
L 210.749795 174.003521 
L 211.165592 178.714156 
L 211.58139 180.182108 
L 211.997187 185.06577 
L 212.412984 184.56825 
L 212.828782 187.210613 
L 213.244579 191.977842 
L 213.660376 191.631851 
L 214.076174 186.718265 
L 214.491971 187.471048 
L 214.907768 184.96459 
L 215.323566 183.878206 
L 215.739363 185.701765 
L 216.15516 186.893686 
L 216.570958 185.699946 
L 216.986755 181.714266 
L 217.402552 185.980398 
L 217.818349 177.428064 
L 218.234147 179.644557 
L 218.649944 186.659748 
L 219.065741 189.768098 
L 219.897336 213.625842 
L 220.728931 219.163954 
L 221.144728 218.303453 
L 221.560525 217.73106 
L 221.976323 220.430093 
L 222.39212 224.773189 
L 222.807917 225.398767 
L 223.223715 229.463563 
L 223.639512 227.740014 
L 224.055309 229.480702 
L 224.471107 220.698796 
L 224.886904 222.811158 
L 225.302701 222.189702 
L 225.718499 222.599848 
L 226.134296 223.376032 
L 226.550093 224.874635 
L 226.96589 229.081772 
L 227.381688 227.32367 
L 227.797485 238.869023 
L 228.213282 238.927312 
L 228.62908 233.205738 
L 229.044877 231.702078 
L 229.460674 228.601819 
L 229.876472 223.089773 
L 230.292269 224.284137 
L 230.708066 220.260358 
L 231.123864 210.247964 
L 231.539661 207.879054 
L 231.955458 206.208287 
L 232.787053 205.25232 
L 233.20285 205.372012 
L 233.618648 208.90886 
L 234.034445 210.675088 
L 234.450242 216.796385 
L 234.866039 215.424862 
L 235.281837 215.021924 
L 235.697634 215.908587 
L 236.113431 206.232233 
L 236.529229 205.1707 
L 236.945026 201.853278 
L 237.360823 201.502758 
L 237.776621 201.396845 
L 238.192418 198.897976 
L 238.608215 205.089485 
L 239.024013 202.018815 
L 239.43981 202.865374 
L 239.855607 201.058542 
L 240.271405 198.715027 
L 241.102999 210.737837 
L 241.518797 213.509585 
L 241.934594 213.176608 
L 242.766189 210.366266 
L 243.181986 211.827241 
L 243.597783 209.778798 
L 244.01358 210.907476 
L 244.429378 213.574286 
L 244.845175 218.63052 
L 245.260972 221.291625 
L 245.67677 220.838765 
L 246.092567 231.937 
L 246.508364 224.004952 
L 246.924162 223.788789 
L 247.339959 224.352401 
L 247.755756 224.439382 
L 248.171554 226.133188 
L 248.587351 225.271843 
L 249.003148 229.050197 
L 249.418946 229.789169 
L 249.834743 232.919182 
L 250.25054 233.36667 
L 250.666338 236.201338 
L 251.082135 240.931563 
L 252.745324 228.175882 
L 253.161121 229.678915 
L 253.576919 228.374923 
L 253.992716 230.363636 
L 254.408513 229.111184 
L 254.824311 226.313058 
L 255.240108 224.566119 
L 255.655905 224.410156 
L 256.071703 217.344758 
L 256.4875 224.464257 
L 256.903297 225.78013 
L 257.319095 220.893125 
L 257.734892 221.728495 
L 258.150689 225.157789 
L 258.566487 226.780426 
L 258.982284 223.329192 
L 259.398081 223.470565 
L 259.813879 224.508639 
L 260.229676 226.146282 
L 260.645473 224.054872 
L 261.06127 220.566105 
L 261.477068 221.24016 
L 261.892865 224.041846 
L 262.308662 229.416645 
L 262.72446 231.474326 
L 263.140257 229.614412 
L 263.556054 233.246316 
L 263.971852 233.432823 
L 264.387649 236.022494 
L 265.635041 238.290278 
L 266.050838 243.23045 
L 266.466636 244.501445 
L 266.882433 244.796727 
L 267.29823 248.44562 
L 267.714028 250.555842 
L 268.129825 251.450037 
L 268.545622 247.727801 
L 268.96142 247.559667 
L 269.377217 244.042804 
L 269.793014 234.415084 
L 270.208811 230.430085 
L 270.624609 228.754119 
L 271.040406 223.058535 
L 271.456203 206.626104 
L 271.872001 205.279897 
L 272.287798 202.590326 
L 272.703595 203.040821 
L 273.119393 204.338638 
L 273.53519 201.819825 
L 273.950987 198.25405 
L 274.366785 197.206432 
L 274.782582 199.418933 
L 275.198379 202.899176 
L 275.614177 201.488828 
L 276.029974 201.740721 
L 276.445771 203.008293 
L 276.861569 199.55357 
L 277.277366 192.152673 
L 277.693163 190.138505 
L 278.108961 190.478589 
L 278.524758 191.004674 
L 278.940555 186.834206 
L 279.356352 192.678517 
L 279.77215 206.428448 
L 280.187947 205.183174 
L 280.603744 207.179202 
L 281.019542 215.28403 
L 281.435339 232.720825 
L 281.851136 228.617687 
L 282.266934 228.017773 
L 282.682731 228.648757 
L 283.098528 228.78467 
L 283.514326 229.219961 
L 283.930123 234.030974 
L 284.34592 231.557788 
L 285.177515 219.873077 
L 285.593312 218.669375 
L 286.00911 216.380341 
L 286.424907 206.234435 
L 286.840704 202.322176 
L 287.256501 205.215151 
L 287.672299 203.688533 
L 288.088096 200.766304 
L 288.503893 199.070896 
L 288.919691 205.912077 
L 289.335488 203.804099 
L 289.751285 203.116142 
L 290.167083 206.622583 
L 290.58288 207.320276 
L 290.998677 202.322317 
L 291.414475 201.414906 
L 291.830272 209.147146 
L 292.246069 210.211364 
L 292.661867 207.852244 
L 293.077664 207.05631 
L 293.909259 208.541878 
L 294.325056 213.62018 
L 294.740853 214.861924 
L 295.572448 203.877936 
L 295.988245 199.925777 
L 296.404042 209.429896 
L 296.81984 213.464231 
L 297.235637 219.88901 
L 297.651434 219.982812 
L 298.067232 220.354622 
L 298.483029 219.925022 
L 298.898826 218.111325 
L 299.314624 217.226963 
L 299.730421 211.189752 
L 300.146218 194.602693 
L 300.562016 196.024846 
L 300.977813 190.31954 
L 301.39361 188.569271 
L 301.809408 185.694063 
L 302.225205 184.586543 
L 302.641002 186.655761 
L 303.0568 185.35977 
L 303.472597 172.356787 
L 303.888394 170.033527 
L 304.304192 169.495194 
L 304.719989 172.778309 
L 305.551583 188.570629 
L 305.967381 181.393056 
L 306.383178 180.184967 
L 307.214773 176.793391 
L 307.63057 178.370814 
L 308.046367 179.45997 
L 308.462165 177.266107 
L 308.877962 178.820633 
L 309.293759 171.800242 
L 309.709557 176.300826 
L 310.125354 192.267887 
L 310.541151 189.717163 
L 311.372746 194.645182 
L 311.788543 196.007532 
L 312.204341 195.281356 
L 312.620138 192.237002 
L 313.035935 194.423969 
L 313.451732 207.753274 
L 313.86753 201.7617 
L 314.283327 197.890746 
L 314.699124 191.321812 
L 315.114922 187.829442 
L 315.530719 187.368248 
L 315.946516 202.268015 
L 316.362314 199.875514 
L 316.778111 203.812812 
L 317.193908 205.675868 
L 317.609706 199.511339 
L 318.025503 198.032301 
L 318.4413 201.718285 
L 318.857098 199.541921 
L 319.272895 208.51581 
L 319.688692 208.041623 
L 320.10449 212.26758 
L 320.520287 208.582013 
L 320.936084 205.890904 
L 321.351882 209.213729 
L 321.767679 207.128655 
L 322.183476 195.953437 
L 322.599273 189.569329 
L 323.015071 186.588273 
L 323.430868 184.943593 
L 324.262463 194.732922 
L 324.67826 196.998444 
L 325.094057 201.809361 
L 325.509855 202.549435 
L 325.925652 196.559106 
L 326.341449 199.81079 
L 326.757247 199.670274 
L 327.173044 198.21855 
L 327.588841 187.327411 
L 328.004639 181.097168 
L 328.420436 184.425709 
L 328.836233 186.062764 
L 329.252031 184.028891 
L 329.667828 183.493088 
L 330.083625 181.926853 
L 330.499423 186.094944 
L 330.91522 194.171245 
L 331.331017 193.288646 
L 331.746814 192.939451 
L 332.162612 207.212537 
L 332.578409 214.331808 
L 332.994206 217.731839 
L 333.410004 218.393714 
L 334.241598 217.80587 
L 334.657396 219.824309 
L 335.073193 214.011832 
L 335.48899 198.932429 
L 335.904788 206.396936 
L 336.320585 200.6986 
L 336.736382 199.694083 
L 337.15218 198.240069 
L 337.567977 211.102951 
L 337.983774 212.926044 
L 338.399572 209.503944 
L 338.815369 197.472294 
L 339.231166 198.833772 
L 339.646963 196.666899 
L 340.062761 196.984122 
L 340.478558 194.871066 
L 340.894355 195.82204 
L 341.310153 194.136826 
L 341.72595 190.983865 
L 342.141747 191.908189 
L 342.557545 194.543407 
L 342.973342 194.72621 
L 343.389139 191.366408 
L 343.804937 194.218149 
L 344.220734 186.293025 
L 344.636531 188.18513 
L 345.052329 192.003011 
L 345.468126 205.563866 
L 345.883923 203.942093 
L 346.715518 215.230855 
L 347.131315 213.45817 
L 347.547113 218.522523 
L 347.96291 221.382375 
L 348.378707 219.438032 
L 348.794504 232.481879 
L 349.210302 230.766653 
L 349.626099 232.176198 
L 350.041896 230.315865 
L 350.457694 227.187996 
L 350.873491 227.844759 
L 351.289288 227.010936 
L 351.705086 228.378474 
L 352.120883 222.818189 
L 352.53668 220.655568 
L 352.952478 215.384828 
L 353.368275 217.843233 
L 353.784072 212.426586 
L 354.19987 213.363174 
L 354.615667 211.670691 
L 355.031464 205.006726 
L 355.447262 195.093796 
L 355.863059 192.982882 
L 356.278856 192.809947 
L 356.694654 187.479551 
L 357.110451 191.225905 
L 357.526248 192.8957 
L 357.942045 191.719909 
L 358.357843 196.932731 
L 358.77364 194.358566 
L 359.189437 195.245492 
L 359.605235 197.322714 
L 360.021032 191.76099 
L 360.436829 193.12527 
L 360.852627 187.531103 
L 361.268424 179.818365 
L 361.684221 176.261746 
L 362.100019 183.513769 
L 362.515816 184.566691 
L 362.931613 185.31067 
L 363.347411 186.997402 
L 363.763208 190.073025 
L 364.179005 186.195699 
L 364.594803 175.009145 
L 365.426397 194.786623 
L 365.842194 188.747198 
L 366.257992 186.839714 
L 366.673789 176.339989 
L 367.089586 171.077783 
L 367.505384 170.473366 
L 367.921181 166.291914 
L 368.336978 166.78173 
L 368.752776 164.843091 
L 369.168573 163.829396 
L 369.58437 160.880925 
L 370.000168 169.72883 
L 370.415965 173.869153 
L 370.831762 170.023856 
L 371.24756 174.939508 
L 371.663357 182.703925 
L 372.079154 178.359922 
L 372.494952 179.523741 
L 372.910749 182.198019 
L 373.326546 183.067752 
L 373.742344 184.286747 
L 374.158141 174.448653 
L 374.989735 171.757932 
L 375.405533 163.285781 
L 375.82133 96.571204 
L 376.237127 96.137546 
L 376.652925 108.999861 
L 377.068722 114.06771 
L 377.484519 108.229573 
L 377.900317 114.005749 
L 378.316114 108.735757 
L 378.731911 105.736268 
L 379.147709 100.967122 
L 379.563506 104.054621 
L 379.979303 102.977196 
L 380.395101 102.758448 
L 380.810898 93.384995 
L 381.226695 95.423175 
L 381.642493 94.654842 
L 382.05829 96.826076 
L 382.474087 96.733528 
L 382.889885 98.594342 
L 383.305682 98.155615 
L 383.721479 100.01807 
L 384.137276 118.686796 
L 384.553074 126.761427 
L 384.968871 122.392472 
L 385.384668 132.029507 
L 385.800466 202.87076 
L 386.63206 206.243495 
L 387.047858 203.605735 
L 387.463655 207.663951 
L 387.879452 204.008014 
L 388.29525 208.569945 
L 388.711047 215.674942 
L 389.126844 220.67884 
L 389.542642 213.981888 
L 389.958439 211.928318 
L 390.374236 193.8646 
L 390.790034 208.71019 
L 391.205831 204.853529 
L 391.621628 204.131026 
L 392.037425 189.301897 
L 392.453223 186.707816 
L 392.86902 164.469025 
L 393.284817 155.961949 
L 394.116412 149.760983 
L 394.532209 156.646885 
L 394.948007 151.692554 
L 395.363804 151.207608 
L 395.779601 152.790635 
L 396.195399 137.707891 
L 396.611196 43.023253 
L 397.026993 46.750802 
L 397.442791 47.673392 
L 397.858588 52.985531 
L 398.274385 52.830266 
L 398.690183 30.25803 
L 399.10598 23.054545 
L 399.521777 26.796197 
L 399.937575 28.151488 
L 400.353372 42.478611 
L 400.769169 48.764336 
L 401.184966 51.232251 
L 401.600764 38.992529 
L 402.016561 52.479442 
L 402.432358 53.232203 
L 402.848156 71.945616 
L 403.263953 83.50884 
L 403.67975 87.233847 
L 404.095548 87.077113 
L 404.511345 81.578644 
L 404.927142 87.913284 
L 405.34294 82.655131 
L 405.758737 74.764001 
L 406.174534 90.706834 
L 406.590332 182.854259 
L 407.006129 182.312761 
L 407.421926 183.149489 
L 407.837724 176.091929 
L 408.253521 173.239788 
L 408.669318 184.737852 
L 409.085115 192.705669 
L 409.500913 194.955447 
L 409.91671 190.072008 
L 410.332507 190.928693 
L 410.748305 185.954955 
L 411.164102 186.554951 
L 411.579899 197.223249 
L 411.995697 198.849443 
L 412.411494 195.624068 
L 412.827291 194.735924 
L 413.658886 188.159852 
L 414.490481 197.189977 
L 414.906278 196.941229 
L 415.322075 188.054647 
L 415.737873 197.588591 
L 416.15367 193.691603 
L 416.569467 193.880258 
L 417.401062 189.825043 
L 418.232656 193.39089 
L 418.648454 197.584016 
L 419.064251 195.90327 
L 419.480048 188.10691 
L 419.895846 190.638251 
L 420.311643 190.144056 
L 420.72744 191.243996 
L 421.143238 190.100132 
L 421.559035 193.414527 
L 421.974832 185.948509 
L 422.39063 95.066534 
L 422.806427 95.400393 
L 423.222224 95.455486 
L 423.638022 95.800694 
L 424.053819 83.959837 
L 424.469616 84.624443 
L 424.885414 87.032582 
L 425.301211 100.675901 
L 425.717008 90.626917 
L 426.132806 89.186739 
L 426.548603 90.343791 
L 426.9644 90.918597 
L 427.380197 91.229679 
L 427.795995 96.979216 
L 428.211792 98.08307 
L 428.627589 105.110598 
L 429.043387 108.846696 
L 429.459184 114.182533 
L 430.290779 119.520318 
L 430.706576 119.317966 
L 431.122373 121.530803 
L 431.538171 119.668649 
L 431.953968 124.203702 
L 432.369765 219.987557 
L 432.785563 221.511582 
L 433.20136 219.352777 
L 433.617157 214.730528 
L 434.032955 227.820508 
L 434.448752 214.509554 
L 434.864549 210.279431 
L 435.280346 208.317654 
L 435.696144 191.593363 
L 436.111941 194.834294 
L 436.527738 194.062494 
L 436.943536 191.112521 
L 437.359333 186.007576 
L 437.77513 184.879321 
L 438.190928 185.959363 
L 438.606725 186.188068 
L 439.022522 174.043343 
L 439.43832 175.217894 
L 439.854117 172.39252 
L 440.269914 173.324351 
L 440.685712 167.016097 
L 441.101509 169.157847 
L 441.517306 170.709706 
L 442.764698 159.173746 
L 443.180496 160.989224 
L 443.596293 164.534377 
L 444.01209 157.456638 
L 444.427887 167.861127 
L 445.259482 173.390987 
L 445.675279 163.365278 
L 446.091077 163.609596 
L 446.506874 161.511336 
L 446.922671 149.5604 
L 447.338469 148.193119 
L 447.754266 141.254285 
L 448.170063 138.126303 
L 448.585861 126.540117 
L 449.001658 139.09207 
L 449.417455 138.577005 
L 449.833253 140.881451 
L 450.24905 103.93466 
L 450.664847 113.0686 
L 451.080645 103.877372 
L 451.496442 105.461993 
L 451.912239 108.176339 
L 452.328037 112.472445 
L 452.743834 110.1418 
L 453.159631 104.411101 
L 453.575428 107.895492 
L 453.991226 112.392687 
L 454.407023 109.519267 
L 454.82282 109.01792 
L 455.238618 105.871892 
L 455.654415 143.103628 
L 456.070212 143.188636 
L 456.48601 146.62732 
L 456.901807 162.641263 
L 457.317604 167.353724 
L 457.733402 174.516028 
L 458.149199 168.454488 
L 458.564996 181.500887 
L 458.980794 178.317539 
L 459.396591 176.060509 
L 459.396591 176.060509 
" style="fill:none;stroke:#ff7f0e;stroke-linecap:square;stroke-width:1.5;"/>
   </g>
   <g id="patch_3">
    <path d="M 33.2875 282.5 
L 33.2875 10.7 
" style="fill:none;stroke:#000000;stroke-linecap:square;stroke-linejoin:miter;stroke-width:0.8;"/>
   </g>
   <g id="patch_4">
    <path d="M 479.6875 282.5 
L 479.6875 10.7 
" style="fill:none;stroke:#000000;stroke-linecap:square;stroke-linejoin:miter;stroke-width:0.8;"/>
   </g>
   <g id="patch_5">
    <path d="M 33.2875 282.5 
L 479.6875 282.5 
" style="fill:none;stroke:#000000;stroke-linecap:square;stroke-linejoin:miter;stroke-width:0.8;"/>
   </g>
   <g id="patch_6">
    <path d="M 33.2875 10.7 
L 479.6875 10.7 
" style="fill:none;stroke:#000000;stroke-linecap:square;stroke-linejoin:miter;stroke-width:0.8;"/>
   </g>
   <g id="legend_1">
    <g id="patch_7">
     <path d="M 415.246875 48.05625 
L 472.6875 48.05625 
Q 474.6875 48.05625 474.6875 46.05625 
L 474.6875 17.7 
Q 474.6875 15.7 472.6875 15.7 
L 415.246875 15.7 
Q 413.246875 15.7 413.246875 17.7 
L 413.246875 46.05625 
Q 413.246875 48.05625 415.246875 48.05625 
z
" style="fill:#ffffff;opacity:0.8;stroke:#cccccc;stroke-linejoin:miter;"/>
    </g>
    <g id="line2d_14">
     <path d="M 417.246875 23.798437 
L 437.246875 23.798437 
" style="fill:none;stroke:#1f77b4;stroke-linecap:square;stroke-width:1.5;"/>
    </g>
    <g id="line2d_15"/>
    <g id="text_12">
     <!-- Train -->
     <defs>
      <path d="M -0.296875 72.90625 
L 61.375 72.90625 
L 61.375 64.59375 
L 35.5 64.59375 
L 35.5 0 
L 25.59375 0 
L 25.59375 64.59375 
L -0.296875 64.59375 
z
" id="DejaVuSans-84"/>
      <path d="M 41.109375 46.296875 
Q 39.59375 47.171875 37.8125 47.578125 
Q 36.03125 48 33.890625 48 
Q 26.265625 48 22.1875 43.046875 
Q 18.109375 38.09375 18.109375 28.8125 
L 18.109375 0 
L 9.078125 0 
L 9.078125 54.6875 
L 18.109375 54.6875 
L 18.109375 46.1875 
Q 20.953125 51.171875 25.484375 53.578125 
Q 30.03125 56 36.53125 56 
Q 37.453125 56 38.578125 55.875 
Q 39.703125 55.765625 41.0625 55.515625 
z
" id="DejaVuSans-114"/>
      <path d="M 34.28125 27.484375 
Q 23.390625 27.484375 19.1875 25 
Q 14.984375 22.515625 14.984375 16.5 
Q 14.984375 11.71875 18.140625 8.90625 
Q 21.296875 6.109375 26.703125 6.109375 
Q 34.1875 6.109375 38.703125 11.40625 
Q 43.21875 16.703125 43.21875 25.484375 
L 43.21875 27.484375 
z
M 52.203125 31.203125 
L 52.203125 0 
L 43.21875 0 
L 43.21875 8.296875 
Q 40.140625 3.328125 35.546875 0.953125 
Q 30.953125 -1.421875 24.3125 -1.421875 
Q 15.921875 -1.421875 10.953125 3.296875 
Q 6 8.015625 6 15.921875 
Q 6 25.140625 12.171875 29.828125 
Q 18.359375 34.515625 30.609375 34.515625 
L 43.21875 34.515625 
L 43.21875 35.40625 
Q 43.21875 41.609375 39.140625 45 
Q 35.0625 48.390625 27.6875 48.390625 
Q 23 48.390625 18.546875 47.265625 
Q 14.109375 46.140625 10.015625 43.890625 
L 10.015625 52.203125 
Q 14.9375 54.109375 19.578125 55.046875 
Q 24.21875 56 28.609375 56 
Q 40.484375 56 46.34375 49.84375 
Q 52.203125 43.703125 52.203125 31.203125 
z
" id="DejaVuSans-97"/>
      <path d="M 9.421875 54.6875 
L 18.40625 54.6875 
L 18.40625 0 
L 9.421875 0 
z
M 9.421875 75.984375 
L 18.40625 75.984375 
L 18.40625 64.59375 
L 9.421875 64.59375 
z
" id="DejaVuSans-105"/>
      <path d="M 54.890625 33.015625 
L 54.890625 0 
L 45.90625 0 
L 45.90625 32.71875 
Q 45.90625 40.484375 42.875 44.328125 
Q 39.84375 48.1875 33.796875 48.1875 
Q 26.515625 48.1875 22.3125 43.546875 
Q 18.109375 38.921875 18.109375 30.90625 
L 18.109375 0 
L 9.078125 0 
L 9.078125 54.6875 
L 18.109375 54.6875 
L 18.109375 46.1875 
Q 21.34375 51.125 25.703125 53.5625 
Q 30.078125 56 35.796875 56 
Q 45.21875 56 50.046875 50.171875 
Q 54.890625 44.34375 54.890625 33.015625 
z
" id="DejaVuSans-110"/>
     </defs>
     <g transform="translate(445.246875 27.298437)scale(0.1 -0.1)">
      <use xlink:href="#DejaVuSans-84"/>
      <use x="60.865234" xlink:href="#DejaVuSans-114"/>
      <use x="101.978516" xlink:href="#DejaVuSans-97"/>
      <use x="163.257812" xlink:href="#DejaVuSans-105"/>
      <use x="191.041016" xlink:href="#DejaVuSans-110"/>
     </g>
    </g>
    <g id="line2d_16">
     <path d="M 417.246875 38.476562 
L 437.246875 38.476562 
" style="fill:none;stroke:#ff7f0e;stroke-linecap:square;stroke-width:1.5;"/>
    </g>
    <g id="line2d_17"/>
    <g id="text_13">
     <!-- Test -->
     <defs>
      <path d="M 56.203125 29.59375 
L 56.203125 25.203125 
L 14.890625 25.203125 
Q 15.484375 15.921875 20.484375 11.0625 
Q 25.484375 6.203125 34.421875 6.203125 
Q 39.59375 6.203125 44.453125 7.46875 
Q 49.3125 8.734375 54.109375 11.28125 
L 54.109375 2.78125 
Q 49.265625 0.734375 44.1875 -0.34375 
Q 39.109375 -1.421875 33.890625 -1.421875 
Q 20.796875 -1.421875 13.15625 6.1875 
Q 5.515625 13.8125 5.515625 26.8125 
Q 5.515625 40.234375 12.765625 48.109375 
Q 20.015625 56 32.328125 56 
Q 43.359375 56 49.78125 48.890625 
Q 56.203125 41.796875 56.203125 29.59375 
z
M 47.21875 32.234375 
Q 47.125 39.59375 43.09375 43.984375 
Q 39.0625 48.390625 32.421875 48.390625 
Q 24.90625 48.390625 20.390625 44.140625 
Q 15.875 39.890625 15.1875 32.171875 
z
" id="DejaVuSans-101"/>
      <path d="M 44.28125 53.078125 
L 44.28125 44.578125 
Q 40.484375 46.53125 36.375 47.5 
Q 32.28125 48.484375 27.875 48.484375 
Q 21.1875 48.484375 17.84375 46.4375 
Q 14.5 44.390625 14.5 40.28125 
Q 14.5 37.15625 16.890625 35.375 
Q 19.28125 33.59375 26.515625 31.984375 
L 29.59375 31.296875 
Q 39.15625 29.25 43.1875 25.515625 
Q 47.21875 21.78125 47.21875 15.09375 
Q 47.21875 7.46875 41.1875 3.015625 
Q 35.15625 -1.421875 24.609375 -1.421875 
Q 20.21875 -1.421875 15.453125 -0.5625 
Q 10.6875 0.296875 5.421875 2 
L 5.421875 11.28125 
Q 10.40625 8.6875 15.234375 7.390625 
Q 20.0625 6.109375 24.8125 6.109375 
Q 31.15625 6.109375 34.5625 8.28125 
Q 37.984375 10.453125 37.984375 14.40625 
Q 37.984375 18.0625 35.515625 20.015625 
Q 33.0625 21.96875 24.703125 23.78125 
L 21.578125 24.515625 
Q 13.234375 26.265625 9.515625 29.90625 
Q 5.8125 33.546875 5.8125 39.890625 
Q 5.8125 47.609375 11.28125 51.796875 
Q 16.75 56 26.8125 56 
Q 31.78125 56 36.171875 55.265625 
Q 40.578125 54.546875 44.28125 53.078125 
z
" id="DejaVuSans-115"/>
      <path d="M 18.3125 70.21875 
L 18.3125 54.6875 
L 36.8125 54.6875 
L 36.8125 47.703125 
L 18.3125 47.703125 
L 18.3125 18.015625 
Q 18.3125 11.328125 20.140625 9.421875 
Q 21.96875 7.515625 27.59375 7.515625 
L 36.8125 7.515625 
L 36.8125 0 
L 27.59375 0 
Q 17.1875 0 13.234375 3.875 
Q 9.28125 7.765625 9.28125 18.015625 
L 9.28125 47.703125 
L 2.6875 47.703125 
L 2.6875 54.6875 
L 9.28125 54.6875 
L 9.28125 70.21875 
z
" id="DejaVuSans-116"/>
     </defs>
     <g transform="translate(445.246875 41.976562)scale(0.1 -0.1)">
      <use xlink:href="#DejaVuSans-84"/>
      <use x="60.818359" xlink:href="#DejaVuSans-101"/>
      <use x="122.341797" xlink:href="#DejaVuSans-115"/>
      <use x="174.441406" xlink:href="#DejaVuSans-116"/>
     </g>
    </g>
   </g>
  </g>
 </g>
 <defs>
  <clipPath id="p2e48136514">
   <rect height="271.8" width="446.4" x="33.2875" y="10.7"/>
  </clipPath>
 </defs>
</svg>
