<?xml version="1.0" encoding="utf-8" standalone="no"?>
<!DOCTYPE svg PUBLIC "-//W3C//DTD SVG 1.1//EN"
  "http://www.w3.org/Graphics/SVG/1.1/DTD/svg11.dtd">
<!-- Created with matplotlib (https://matplotlib.org/) -->
<svg height="317.99625pt" version="1.1" viewBox="0 0 490.3875 317.99625" width="490.3875pt" xmlns="http://www.w3.org/2000/svg" xmlns:xlink="http://www.w3.org/1999/xlink">
 <defs>
  <style type="text/css">
*{stroke-linecap:butt;stroke-linejoin:round;}
  </style>
 </defs>
 <g id="figure_1">
  <g id="patch_1">
   <path d="M 0 317.99625 
L 490.3875 317.99625 
L 490.3875 0 
L 0 0 
z
" style="fill:#ffffff;"/>
  </g>
  <g id="axes_1">
   <g id="patch_2">
    <path d="M 33.2875 294.118125 
L 479.6875 294.118125 
L 479.6875 22.318125 
L 33.2875 22.318125 
z
" style="fill:#ffffff;"/>
   </g>
   <g id="matplotlib.axis_1">
    <g id="xtick_1">
     <g id="line2d_1">
      <defs>
       <path d="M 0 0 
L 0 3.5 
" id="m07fdd2994a" style="stroke:#000000;stroke-width:0.8;"/>
      </defs>
      <g>
       <use style="stroke:#000000;stroke-width:0.8;" x="53.578409" xlink:href="#m07fdd2994a" y="294.118125"/>
      </g>
     </g>
     <g id="text_1">
      <!-- 0 -->
      <defs>
       <path d="M 31.78125 66.40625 
Q 24.171875 66.40625 20.328125 58.90625 
Q 16.5 51.421875 16.5 36.375 
Q 16.5 21.390625 20.328125 13.890625 
Q 24.171875 6.390625 31.78125 6.390625 
Q 39.453125 6.390625 43.28125 13.890625 
Q 47.125 21.390625 47.125 36.375 
Q 47.125 51.421875 43.28125 58.90625 
Q 39.453125 66.40625 31.78125 66.40625 
z
M 31.78125 74.21875 
Q 44.046875 74.21875 50.515625 64.515625 
Q 56.984375 54.828125 56.984375 36.375 
Q 56.984375 17.96875 50.515625 8.265625 
Q 44.046875 -1.421875 31.78125 -1.421875 
Q 19.53125 -1.421875 13.0625 8.265625 
Q 6.59375 17.96875 6.59375 36.375 
Q 6.59375 54.828125 13.0625 64.515625 
Q 19.53125 74.21875 31.78125 74.21875 
z
" id="DejaVuSans-48"/>
      </defs>
      <g transform="translate(50.397159 308.716563)scale(0.1 -0.1)">
       <use xlink:href="#DejaVuSans-48"/>
      </g>
     </g>
    </g>
    <g id="xtick_2">
     <g id="line2d_2">
      <g>
       <use style="stroke:#000000;stroke-width:0.8;" x="132.839773" xlink:href="#m07fdd2994a" y="294.118125"/>
      </g>
     </g>
     <g id="text_2">
      <!-- 50 -->
      <defs>
       <path d="M 10.796875 72.90625 
L 49.515625 72.90625 
L 49.515625 64.59375 
L 19.828125 64.59375 
L 19.828125 46.734375 
Q 21.96875 47.46875 24.109375 47.828125 
Q 26.265625 48.1875 28.421875 48.1875 
Q 40.625 48.1875 47.75 41.5 
Q 54.890625 34.8125 54.890625 23.390625 
Q 54.890625 11.625 47.5625 5.09375 
Q 40.234375 -1.421875 26.90625 -1.421875 
Q 22.3125 -1.421875 17.546875 -0.640625 
Q 12.796875 0.140625 7.71875 1.703125 
L 7.71875 11.625 
Q 12.109375 9.234375 16.796875 8.0625 
Q 21.484375 6.890625 26.703125 6.890625 
Q 35.15625 6.890625 40.078125 11.328125 
Q 45.015625 15.765625 45.015625 23.390625 
Q 45.015625 31 40.078125 35.4375 
Q 35.15625 39.890625 26.703125 39.890625 
Q 22.75 39.890625 18.8125 39.015625 
Q 14.890625 38.140625 10.796875 36.28125 
z
" id="DejaVuSans-53"/>
      </defs>
      <g transform="translate(126.477273 308.716563)scale(0.1 -0.1)">
       <use xlink:href="#DejaVuSans-53"/>
       <use x="63.623047" xlink:href="#DejaVuSans-48"/>
      </g>
     </g>
    </g>
    <g id="xtick_3">
     <g id="line2d_3">
      <g>
       <use style="stroke:#000000;stroke-width:0.8;" x="212.101136" xlink:href="#m07fdd2994a" y="294.118125"/>
      </g>
     </g>
     <g id="text_3">
      <!-- 100 -->
      <defs>
       <path d="M 12.40625 8.296875 
L 28.515625 8.296875 
L 28.515625 63.921875 
L 10.984375 60.40625 
L 10.984375 69.390625 
L 28.421875 72.90625 
L 38.28125 72.90625 
L 38.28125 8.296875 
L 54.390625 8.296875 
L 54.390625 0 
L 12.40625 0 
z
" id="DejaVuSans-49"/>
      </defs>
      <g transform="translate(202.557386 308.716563)scale(0.1 -0.1)">
       <use xlink:href="#DejaVuSans-49"/>
       <use x="63.623047" xlink:href="#DejaVuSans-48"/>
       <use x="127.246094" xlink:href="#DejaVuSans-48"/>
      </g>
     </g>
    </g>
    <g id="xtick_4">
     <g id="line2d_4">
      <g>
       <use style="stroke:#000000;stroke-width:0.8;" x="291.3625" xlink:href="#m07fdd2994a" y="294.118125"/>
      </g>
     </g>
     <g id="text_4">
      <!-- 150 -->
      <g transform="translate(281.81875 308.716563)scale(0.1 -0.1)">
       <use xlink:href="#DejaVuSans-49"/>
       <use x="63.623047" xlink:href="#DejaVuSans-53"/>
       <use x="127.246094" xlink:href="#DejaVuSans-48"/>
      </g>
     </g>
    </g>
    <g id="xtick_5">
     <g id="line2d_5">
      <g>
       <use style="stroke:#000000;stroke-width:0.8;" x="370.623864" xlink:href="#m07fdd2994a" y="294.118125"/>
      </g>
     </g>
     <g id="text_5">
      <!-- 200 -->
      <defs>
       <path d="M 19.1875 8.296875 
L 53.609375 8.296875 
L 53.609375 0 
L 7.328125 0 
L 7.328125 8.296875 
Q 12.9375 14.109375 22.625 23.890625 
Q 32.328125 33.6875 34.8125 36.53125 
Q 39.546875 41.84375 41.421875 45.53125 
Q 43.3125 49.21875 43.3125 52.78125 
Q 43.3125 58.59375 39.234375 62.25 
Q 35.15625 65.921875 28.609375 65.921875 
Q 23.96875 65.921875 18.8125 64.3125 
Q 13.671875 62.703125 7.8125 59.421875 
L 7.8125 69.390625 
Q 13.765625 71.78125 18.9375 73 
Q 24.125 74.21875 28.421875 74.21875 
Q 39.75 74.21875 46.484375 68.546875 
Q 53.21875 62.890625 53.21875 53.421875 
Q 53.21875 48.921875 51.53125 44.890625 
Q 49.859375 40.875 45.40625 35.40625 
Q 44.1875 33.984375 37.640625 27.21875 
Q 31.109375 20.453125 19.1875 8.296875 
z
" id="DejaVuSans-50"/>
      </defs>
      <g transform="translate(361.080114 308.716563)scale(0.1 -0.1)">
       <use xlink:href="#DejaVuSans-50"/>
       <use x="63.623047" xlink:href="#DejaVuSans-48"/>
       <use x="127.246094" xlink:href="#DejaVuSans-48"/>
      </g>
     </g>
    </g>
    <g id="xtick_6">
     <g id="line2d_6">
      <g>
       <use style="stroke:#000000;stroke-width:0.8;" x="449.885227" xlink:href="#m07fdd2994a" y="294.118125"/>
      </g>
     </g>
     <g id="text_6">
      <!-- 250 -->
      <g transform="translate(440.341477 308.716563)scale(0.1 -0.1)">
       <use xlink:href="#DejaVuSans-50"/>
       <use x="63.623047" xlink:href="#DejaVuSans-53"/>
       <use x="127.246094" xlink:href="#DejaVuSans-48"/>
      </g>
     </g>
    </g>
   </g>
   <g id="matplotlib.axis_2">
    <g id="ytick_1">
     <g id="line2d_7">
      <defs>
       <path d="M 0 0 
L -3.5 0 
" id="mefbaf4e3a5" style="stroke:#000000;stroke-width:0.8;"/>
      </defs>
      <g>
       <use style="stroke:#000000;stroke-width:0.8;" x="33.2875" xlink:href="#mefbaf4e3a5" y="289.167753"/>
      </g>
     </g>
     <g id="text_7">
      <!-- 0 -->
      <g transform="translate(19.925 292.966971)scale(0.1 -0.1)">
       <use xlink:href="#DejaVuSans-48"/>
      </g>
     </g>
    </g>
    <g id="ytick_2">
     <g id="line2d_8">
      <g>
       <use style="stroke:#000000;stroke-width:0.8;" x="33.2875" xlink:href="#mefbaf4e3a5" y="258.549952"/>
      </g>
     </g>
     <g id="text_8">
      <!-- 20 -->
      <g transform="translate(13.5625 262.349171)scale(0.1 -0.1)">
       <use xlink:href="#DejaVuSans-50"/>
       <use x="63.623047" xlink:href="#DejaVuSans-48"/>
      </g>
     </g>
    </g>
    <g id="ytick_3">
     <g id="line2d_9">
      <g>
       <use style="stroke:#000000;stroke-width:0.8;" x="33.2875" xlink:href="#mefbaf4e3a5" y="227.932152"/>
      </g>
     </g>
     <g id="text_9">
      <!-- 40 -->
      <defs>
       <path d="M 37.796875 64.3125 
L 12.890625 25.390625 
L 37.796875 25.390625 
z
M 35.203125 72.90625 
L 47.609375 72.90625 
L 47.609375 25.390625 
L 58.015625 25.390625 
L 58.015625 17.1875 
L 47.609375 17.1875 
L 47.609375 0 
L 37.796875 0 
L 37.796875 17.1875 
L 4.890625 17.1875 
L 4.890625 26.703125 
z
" id="DejaVuSans-52"/>
      </defs>
      <g transform="translate(13.5625 231.731371)scale(0.1 -0.1)">
       <use xlink:href="#DejaVuSans-52"/>
       <use x="63.623047" xlink:href="#DejaVuSans-48"/>
      </g>
     </g>
    </g>
    <g id="ytick_4">
     <g id="line2d_10">
      <g>
       <use style="stroke:#000000;stroke-width:0.8;" x="33.2875" xlink:href="#mefbaf4e3a5" y="197.314352"/>
      </g>
     </g>
     <g id="text_10">
      <!-- 60 -->
      <defs>
       <path d="M 33.015625 40.375 
Q 26.375 40.375 22.484375 35.828125 
Q 18.609375 31.296875 18.609375 23.390625 
Q 18.609375 15.53125 22.484375 10.953125 
Q 26.375 6.390625 33.015625 6.390625 
Q 39.65625 6.390625 43.53125 10.953125 
Q 47.40625 15.53125 47.40625 23.390625 
Q 47.40625 31.296875 43.53125 35.828125 
Q 39.65625 40.375 33.015625 40.375 
z
M 52.59375 71.296875 
L 52.59375 62.3125 
Q 48.875 64.0625 45.09375 64.984375 
Q 41.3125 65.921875 37.59375 65.921875 
Q 27.828125 65.921875 22.671875 59.328125 
Q 17.53125 52.734375 16.796875 39.40625 
Q 19.671875 43.65625 24.015625 45.921875 
Q 28.375 48.1875 33.59375 48.1875 
Q 44.578125 48.1875 50.953125 41.515625 
Q 57.328125 34.859375 57.328125 23.390625 
Q 57.328125 12.15625 50.6875 5.359375 
Q 44.046875 -1.421875 33.015625 -1.421875 
Q 20.359375 -1.421875 13.671875 8.265625 
Q 6.984375 17.96875 6.984375 36.375 
Q 6.984375 53.65625 15.1875 63.9375 
Q 23.390625 74.21875 37.203125 74.21875 
Q 40.921875 74.21875 44.703125 73.484375 
Q 48.484375 72.75 52.59375 71.296875 
z
" id="DejaVuSans-54"/>
      </defs>
      <g transform="translate(13.5625 201.113571)scale(0.1 -0.1)">
       <use xlink:href="#DejaVuSans-54"/>
       <use x="63.623047" xlink:href="#DejaVuSans-48"/>
      </g>
     </g>
    </g>
    <g id="ytick_5">
     <g id="line2d_11">
      <g>
       <use style="stroke:#000000;stroke-width:0.8;" x="33.2875" xlink:href="#mefbaf4e3a5" y="166.696552"/>
      </g>
     </g>
     <g id="text_11">
      <!-- 80 -->
      <defs>
       <path d="M 31.78125 34.625 
Q 24.75 34.625 20.71875 30.859375 
Q 16.703125 27.09375 16.703125 20.515625 
Q 16.703125 13.921875 20.71875 10.15625 
Q 24.75 6.390625 31.78125 6.390625 
Q 38.8125 6.390625 42.859375 10.171875 
Q 46.921875 13.96875 46.921875 20.515625 
Q 46.921875 27.09375 42.890625 30.859375 
Q 38.875 34.625 31.78125 34.625 
z
M 21.921875 38.8125 
Q 15.578125 40.375 12.03125 44.71875 
Q 8.5 49.078125 8.5 55.328125 
Q 8.5 64.0625 14.71875 69.140625 
Q 20.953125 74.21875 31.78125 74.21875 
Q 42.671875 74.21875 48.875 69.140625 
Q 55.078125 64.0625 55.078125 55.328125 
Q 55.078125 49.078125 51.53125 44.71875 
Q 48 40.375 41.703125 38.8125 
Q 48.828125 37.15625 52.796875 32.3125 
Q 56.78125 27.484375 56.78125 20.515625 
Q 56.78125 9.90625 50.3125 4.234375 
Q 43.84375 -1.421875 31.78125 -1.421875 
Q 19.734375 -1.421875 13.25 4.234375 
Q 6.78125 9.90625 6.78125 20.515625 
Q 6.78125 27.484375 10.78125 32.3125 
Q 14.796875 37.15625 21.921875 38.8125 
z
M 18.3125 54.390625 
Q 18.3125 48.734375 21.84375 45.5625 
Q 25.390625 42.390625 31.78125 42.390625 
Q 38.140625 42.390625 41.71875 45.5625 
Q 45.3125 48.734375 45.3125 54.390625 
Q 45.3125 60.0625 41.71875 63.234375 
Q 38.140625 66.40625 31.78125 66.40625 
Q 25.390625 66.40625 21.84375 63.234375 
Q 18.3125 60.0625 18.3125 54.390625 
z
" id="DejaVuSans-56"/>
      </defs>
      <g transform="translate(13.5625 170.49577)scale(0.1 -0.1)">
       <use xlink:href="#DejaVuSans-56"/>
       <use x="63.623047" xlink:href="#DejaVuSans-48"/>
      </g>
     </g>
    </g>
    <g id="ytick_6">
     <g id="line2d_12">
      <g>
       <use style="stroke:#000000;stroke-width:0.8;" x="33.2875" xlink:href="#mefbaf4e3a5" y="136.078752"/>
      </g>
     </g>
     <g id="text_12">
      <!-- 100 -->
      <g transform="translate(7.2 139.87797)scale(0.1 -0.1)">
       <use xlink:href="#DejaVuSans-49"/>
       <use x="63.623047" xlink:href="#DejaVuSans-48"/>
       <use x="127.246094" xlink:href="#DejaVuSans-48"/>
      </g>
     </g>
    </g>
    <g id="ytick_7">
     <g id="line2d_13">
      <g>
       <use style="stroke:#000000;stroke-width:0.8;" x="33.2875" xlink:href="#mefbaf4e3a5" y="105.460951"/>
      </g>
     </g>
     <g id="text_13">
      <!-- 120 -->
      <g transform="translate(7.2 109.26017)scale(0.1 -0.1)">
       <use xlink:href="#DejaVuSans-49"/>
       <use x="63.623047" xlink:href="#DejaVuSans-50"/>
       <use x="127.246094" xlink:href="#DejaVuSans-48"/>
      </g>
     </g>
    </g>
    <g id="ytick_8">
     <g id="line2d_14">
      <g>
       <use style="stroke:#000000;stroke-width:0.8;" x="33.2875" xlink:href="#mefbaf4e3a5" y="74.843151"/>
      </g>
     </g>
     <g id="text_14">
      <!-- 140 -->
      <g transform="translate(7.2 78.64237)scale(0.1 -0.1)">
       <use xlink:href="#DejaVuSans-49"/>
       <use x="63.623047" xlink:href="#DejaVuSans-52"/>
       <use x="127.246094" xlink:href="#DejaVuSans-48"/>
      </g>
     </g>
    </g>
    <g id="ytick_9">
     <g id="line2d_15">
      <g>
       <use style="stroke:#000000;stroke-width:0.8;" x="33.2875" xlink:href="#mefbaf4e3a5" y="44.225351"/>
      </g>
     </g>
     <g id="text_15">
      <!-- 160 -->
      <g transform="translate(7.2 48.02457)scale(0.1 -0.1)">
       <use xlink:href="#DejaVuSans-49"/>
       <use x="63.623047" xlink:href="#DejaVuSans-54"/>
       <use x="127.246094" xlink:href="#DejaVuSans-48"/>
      </g>
     </g>
    </g>
   </g>
   <g id="line2d_16">
    <path clip-path="url(#pcf9ef68f0a)" d="M 53.578409 248.945095 
L 55.163636 250.104972 
L 56.748864 249.568238 
L 58.334091 250.973502 
L 59.919318 249.381495 
L 61.504545 250.167896 
L 63.089773 250.298872 
L 64.675 249.741447 
L 66.260227 250.647868 
L 69.430682 247.213351 
L 71.015909 244.443143 
L 74.186364 243.467981 
L 75.771591 243.213862 
L 77.356818 243.410027 
L 78.942045 246.082386 
L 80.527273 245.247513 
L 82.1125 244.174374 
L 83.697727 241.892911 
L 85.282955 241.479418 
L 86.868182 240.420219 
L 88.453409 238.007343 
L 90.038636 246.067799 
L 91.623864 245.235967 
L 93.209091 242.95361 
L 94.794318 241.51361 
L 96.379545 239.232054 
L 97.964773 239.831047 
L 99.55 235.847188 
L 101.135227 236.989416 
L 102.720455 227.835233 
L 104.305682 227.585203 
L 105.890909 220.469276 
L 107.476136 223.055093 
L 109.061364 224.132054 
L 110.646591 224.578259 
L 112.231818 224.230728 
L 113.817045 217.04175 
L 115.402273 207.974205 
L 116.9875 196.528316 
L 118.572727 197.412134 
L 120.157955 195.510223 
L 121.743182 197.10396 
L 123.328409 189.538202 
L 124.913636 183.347935 
L 128.084091 183.016378 
L 129.669318 182.298927 
L 131.254545 188.067475 
L 132.839773 189.77947 
L 134.425 190.866103 
L 136.010227 181.710348 
L 137.595455 182.992807 
L 139.180682 183.048846 
L 140.765909 190.866378 
L 142.351136 191.111571 
L 143.936364 200.638097 
L 145.521591 200.278078 
L 147.106818 201.094316 
L 148.692045 191.612633 
L 150.277273 183.307809 
L 151.8625 191.100406 
L 155.032955 211.91742 
L 156.618182 202.381731 
L 158.203409 201.490963 
L 159.788636 200.915998 
L 161.373864 200.964394 
L 162.959091 200.61809 
L 164.544318 199.470401 
L 166.129545 200.486307 
L 167.714773 199.094534 
L 169.3 186.961729 
L 170.885227 182.77752 
L 172.470455 183.006963 
L 174.055682 183.088565 
L 175.640909 181.439136 
L 177.226136 171.684592 
L 178.811364 171.459913 
L 180.396591 162.694933 
L 181.981818 152.932085 
L 183.567045 153.718653 
L 185.152273 153.898505 
L 186.7375 162.789662 
L 188.322727 162.545657 
L 189.907955 162.140721 
L 191.493182 160.230591 
L 193.078409 160.396377 
L 194.663636 169.179295 
L 196.248864 162.338463 
L 197.834091 160.792613 
L 199.419318 161.559858 
L 201.004545 174.63751 
L 202.589773 177.066798 
L 204.175 178.705686 
L 205.760227 172.75951 
L 207.345455 181.629257 
L 208.930682 183.849544 
L 210.515909 174.315112 
L 212.101136 175.047044 
L 213.686364 175.53845 
L 215.271591 174.12677 
L 216.856818 176.017063 
L 218.442045 176.877546 
L 220.027273 176.837702 
L 221.6125 177.700501 
L 223.197727 177.597724 
L 224.782955 175.331847 
L 226.368182 175.766375 
L 227.953409 174.557756 
L 229.538636 176.289483 
L 231.123864 172.567171 
L 232.709091 172.687796 
L 234.294318 180.17962 
L 235.879545 172.695447 
L 237.464773 172.20645 
L 239.05 159.791111 
L 240.635227 158.214646 
L 242.220455 155.025506 
L 243.805682 162.174367 
L 245.390909 163.112708 
L 246.976136 154.888993 
L 248.561364 163.571229 
L 250.146591 169.916986 
L 251.731818 169.353138 
L 253.317045 179.170784 
L 254.902273 176.454775 
L 258.072727 174.298659 
L 259.657955 171.309936 
L 261.243182 162.838697 
L 262.828409 163.302319 
L 264.413636 172.836412 
L 265.998864 166.611829 
L 267.584091 162.65338 
L 269.169318 162.193861 
L 270.754545 153.87978 
L 272.339773 147.157168 
L 273.925 157.482747 
L 275.510227 163.28934 
L 277.095455 162.689681 
L 278.680682 162.735097 
L 280.265909 155.429396 
L 281.851136 155.25567 
L 283.436364 154.787168 
L 285.021591 161.759358 
L 286.606818 153.236484 
L 288.192045 146.542231 
L 289.777273 149.956438 
L 291.3625 148.756917 
L 292.947727 141.600616 
L 294.532955 141.408461 
L 296.118182 142.602018 
L 297.703409 141.636865 
L 299.288636 141.689885 
L 300.873864 134.790218 
L 302.459091 135.76268 
L 304.044318 143.744293 
L 305.629545 137.65035 
L 307.214773 139.413166 
L 308.8 147.055679 
L 310.385227 147.178005 
L 311.970455 137.378684 
L 313.555682 141.542268 
L 315.140909 141.329747 
L 316.726136 133.235962 
L 318.311364 133.504611 
L 319.896591 135.258756 
L 321.481818 125.043912 
L 323.067045 124.076846 
L 324.652273 129.838939 
L 326.2375 140.216041 
L 327.822727 140.316613 
L 329.407955 132.29247 
L 330.993182 132.015281 
L 332.578409 132.653238 
L 334.163636 132.573066 
L 335.748864 134.082546 
L 337.334091 133.670054 
L 338.919318 133.797455 
L 340.504545 122.869165 
L 342.089773 121.085581 
L 343.675 130.768422 
L 345.260227 129.806082 
L 346.845455 121.578656 
L 350.015909 120.5547 
L 351.601136 110.56503 
L 353.186364 110.772548 
L 354.771591 118.975219 
L 356.356818 118.456508 
L 357.942045 116.577465 
L 359.527273 117.464431 
L 362.697727 106.21233 
L 364.282955 105.453585 
L 365.868182 96.048633 
L 369.038636 95.67178 
L 370.623864 105.860268 
L 372.209091 106.240079 
L 373.794318 106.161386 
L 375.379545 106.489251 
L 376.964773 112.663664 
L 378.55 113.44338 
L 380.135227 113.985394 
L 381.720455 113.121184 
L 383.305682 107.221998 
L 384.890909 107.037785 
L 386.476136 107.002753 
L 388.061364 114.677892 
L 391.231818 113.74263 
L 392.817045 105.88802 
L 394.402273 106.719739 
L 395.9875 100.012888 
L 397.572727 105.763183 
L 399.157955 105.753749 
L 400.743182 112.778232 
L 402.328409 102.76926 
L 403.913636 110.524579 
L 407.084091 131.238183 
L 408.669318 131.052939 
L 410.254545 130.696347 
L 411.839773 131.763014 
L 413.425 138.775311 
L 415.010227 138.926548 
L 416.595455 139.571851 
L 418.180682 139.639985 
L 419.765909 140.668907 
L 421.351136 139.456704 
L 422.936364 147.542921 
L 424.521591 147.358125 
L 426.106818 150.155751 
L 427.692045 159.396648 
L 429.277273 167.141289 
L 432.447727 166.206062 
L 434.032955 174.098925 
L 435.618182 177.826789 
L 437.203409 176.753206 
L 438.788636 176.727873 
L 440.373864 177.883681 
L 441.959091 176.092312 
L 443.544318 166.554409 
L 445.129545 162.925438 
L 446.714773 159.747681 
L 448.3 160.067318 
L 451.470455 158.173824 
L 453.055682 150.681683 
L 454.640909 150.058309 
L 456.226136 149.74802 
L 457.811364 146.722584 
L 459.396591 157.204934 
L 459.396591 157.204934 
" style="fill:none;stroke:#1f77b4;stroke-linecap:square;stroke-width:1.5;"/>
   </g>
   <g id="line2d_17">
    <path clip-path="url(#pcf9ef68f0a)" d="M 53.578409 263.486262 
L 55.163636 276.224538 
L 56.748864 266.862026 
L 58.334091 271.123827 
L 59.919318 260.217033 
L 61.504545 255.828141 
L 63.089773 250.647742 
L 64.675 249.241207 
L 66.260227 263.494908 
L 67.845455 259.257266 
L 69.430682 258.092563 
L 71.015909 251.049331 
L 72.601136 241.030599 
L 74.186364 246.138051 
L 75.771591 260.119232 
L 77.356818 267.576129 
L 78.942045 263.549484 
L 80.527273 252.072621 
L 82.1125 252.989134 
L 83.697727 191.170815 
L 85.282955 201.892284 
L 86.868182 211.109216 
L 88.453409 208.698733 
L 90.038636 275.6797 
L 91.623864 266.104662 
L 93.209091 276.602083 
L 94.794318 271.245827 
L 96.379545 263.731497 
L 97.964773 267.815271 
L 99.55 248.598509 
L 101.135227 232.134614 
L 102.720455 217.451385 
L 104.305682 223.006914 
L 105.890909 226.287408 
L 107.476136 234.095634 
L 109.061364 244.850635 
L 110.646591 254.125702 
L 112.231818 256.815239 
L 113.817045 265.882304 
L 115.402273 258.473437 
L 116.9875 235.931677 
L 118.572727 223.108856 
L 120.157955 215.986947 
L 121.743182 216.220139 
L 123.328409 224.431574 
L 124.913636 226.309565 
L 126.498864 229.736333 
L 128.084091 234.665233 
L 129.669318 233.675145 
L 131.254545 233.963552 
L 132.839773 244.100661 
L 134.425 195.350569 
L 136.010227 194.340208 
L 137.595455 156.331036 
L 139.180682 148.528679 
L 140.765909 195.232309 
L 142.351136 204.965251 
L 143.936364 248.856122 
L 147.106818 147.903546 
L 148.692045 85.826042 
L 150.277273 95.903671 
L 151.8625 136.693144 
L 153.447727 193.251967 
L 155.032955 193.990992 
L 156.618182 138.723662 
L 158.203409 142.28541 
L 159.788636 131.694646 
L 161.373864 180.995922 
L 162.959091 254.626806 
L 164.544318 269.05335 
L 166.129545 281.76358 
L 167.714773 230.143672 
L 169.3 203.515545 
L 170.885227 203.71692 
L 172.470455 195.352225 
L 174.055682 250.747548 
L 175.640909 262.202779 
L 177.226136 251.904066 
L 178.811364 256.599936 
L 180.396591 207.971623 
L 181.981818 144.874392 
L 183.567045 142.949546 
L 185.152273 150.957698 
L 186.7375 207.654764 
L 188.322727 210.347206 
L 189.907955 199.036485 
L 191.493182 189.127905 
L 193.078409 128.272837 
L 194.663636 128.141813 
L 196.248864 130.16204 
L 197.834091 129.116497 
L 199.419318 169.77676 
L 201.004545 172.688641 
L 202.589773 168.896064 
L 204.175 176.887519 
L 205.760227 134.107858 
L 207.345455 170.379986 
L 208.930682 137.159348 
L 210.515909 126.069927 
L 212.101136 128.385755 
L 213.686364 91.16047 
L 215.271591 144.108434 
L 216.856818 151.231484 
L 218.442045 208.539999 
L 220.027273 202.555826 
L 221.6125 193.481956 
L 223.197727 188.950213 
L 224.782955 193.295052 
L 226.368182 250.149033 
L 227.953409 200.222934 
L 229.538636 192.500041 
L 231.123864 135.253725 
L 232.709091 160.891106 
L 234.294318 218.532049 
L 235.879545 236.594932 
L 237.464773 236.974671 
L 239.05 214.639121 
L 240.635227 209.592542 
L 242.220455 150.544076 
L 243.805682 147.833063 
L 245.390909 133.835142 
L 246.976136 78.822705 
L 248.561364 136.28163 
L 250.146591 139.368767 
L 251.731818 98.955983 
L 253.317045 165.550818 
L 254.902273 160.715451 
L 256.4875 199.265807 
L 258.072727 196.127869 
L 259.657955 174.625491 
L 261.243182 181.100769 
L 262.828409 176.706996 
L 264.413636 231.677553 
L 265.998864 233.954113 
L 267.584091 170.935821 
L 269.169318 133.089398 
L 270.754545 83.510996 
L 272.339773 86.742208 
L 275.510227 176.782171 
L 277.095455 234.568706 
L 278.680682 189.638623 
L 280.265909 201.818412 
L 281.851136 194.288778 
L 283.436364 171.27772 
L 285.021591 224.513452 
L 286.606818 213.582908 
L 289.777273 128.629112 
L 291.3625 118.385731 
L 292.947727 79.018981 
L 294.532955 127.162664 
L 296.118182 187.354382 
L 297.703409 146.436848 
L 299.288636 179.988871 
L 300.873864 170.056248 
L 302.459091 117.937763 
L 304.044318 117.226144 
L 305.629545 139.912023 
L 307.214773 139.662271 
L 308.8 136.3704 
L 310.385227 180.209786 
L 311.970455 118.255184 
L 313.555682 128.580147 
L 315.140909 187.15363 
L 316.726136 183.784189 
L 318.311364 188.66094 
L 319.896591 142.008147 
L 321.481818 142.293339 
L 323.067045 146.4988 
L 326.2375 140.981292 
L 327.822727 84.502596 
L 329.407955 75.665424 
L 330.993182 79.554593 
L 332.578409 87.453202 
L 334.163636 146.318353 
L 335.748864 159.081416 
L 337.334091 155.751662 
L 338.919318 197.793937 
L 340.504545 185.695755 
L 342.089773 137.828414 
L 343.675 138.282027 
L 345.260227 152.436883 
L 346.845455 102.014808 
L 348.430682 96.557526 
L 350.015909 95.010745 
L 351.601136 90.879078 
L 353.186364 89.438619 
L 356.356818 166.666909 
L 357.942045 171.751853 
L 359.527273 233.929546 
L 362.697727 156.825752 
L 365.868182 38.041313 
L 367.453409 86.405881 
L 369.038636 89.48323 
L 370.623864 94.3185 
L 372.209091 88.09495 
L 373.794318 81.099625 
L 375.379545 138.341869 
L 376.964773 173.8457 
L 378.55 177.952702 
L 380.135227 137.587872 
L 381.720455 76.999697 
L 383.305682 36.990572 
L 384.890909 37.178155 
L 386.476136 84.135898 
L 388.061364 82.421589 
L 389.646591 126.953685 
L 391.231818 129.589919 
L 392.817045 86.835267 
L 394.402273 93.201842 
L 395.9875 105.008576 
L 397.572727 105.434759 
L 399.157955 98.922672 
L 400.743182 93.58245 
L 402.328409 98.044571 
L 403.913636 99.189988 
L 405.498864 148.386983 
L 407.084091 154.388057 
L 408.669318 135.138877 
L 410.254545 131.314758 
L 411.839773 128.043673 
L 413.425 178.13347 
L 415.010227 141.195709 
L 416.595455 139.519131 
L 418.180682 95.692023 
L 419.765909 86.339943 
L 421.351136 78.860928 
L 422.936364 77.407224 
L 424.521591 77.447502 
L 426.106818 34.67267 
L 427.692045 41.828669 
L 429.277273 81.713235 
L 430.8625 86.029643 
L 432.447727 129.552803 
L 434.032955 121.546804 
L 435.618182 134.003139 
L 437.203409 190.207115 
L 438.788636 204.342154 
L 440.373864 267.746645 
L 441.959091 220.220592 
L 443.544318 213.158125 
L 445.129545 199.610827 
L 446.714773 182.38053 
L 448.3 184.567782 
L 449.885227 175.305498 
L 451.470455 189.495044 
L 453.055682 144.376647 
L 453.055682 144.376647 
" style="fill:none;stroke:#1f77b4;stroke-linecap:square;stroke-opacity:0.2;stroke-width:1.5;"/>
   </g>
   <g id="patch_3">
    <path d="M 33.2875 294.118125 
L 33.2875 22.318125 
" style="fill:none;stroke:#000000;stroke-linecap:square;stroke-linejoin:miter;stroke-width:0.8;"/>
   </g>
   <g id="patch_4">
    <path d="M 479.6875 294.118125 
L 479.6875 22.318125 
" style="fill:none;stroke:#000000;stroke-linecap:square;stroke-linejoin:miter;stroke-width:0.8;"/>
   </g>
   <g id="patch_5">
    <path d="M 33.2875 294.118125 
L 479.6875 294.118125 
" style="fill:none;stroke:#000000;stroke-linecap:square;stroke-linejoin:miter;stroke-width:0.8;"/>
   </g>
   <g id="patch_6">
    <path d="M 33.2875 22.318125 
L 479.6875 22.318125 
" style="fill:none;stroke:#000000;stroke-linecap:square;stroke-linejoin:miter;stroke-width:0.8;"/>
   </g>
   <g id="text_16">
    <!-- Episodic Return -->
    <defs>
     <path d="M 9.8125 72.90625 
L 55.90625 72.90625 
L 55.90625 64.59375 
L 19.671875 64.59375 
L 19.671875 43.015625 
L 54.390625 43.015625 
L 54.390625 34.71875 
L 19.671875 34.71875 
L 19.671875 8.296875 
L 56.78125 8.296875 
L 56.78125 0 
L 9.8125 0 
z
" id="DejaVuSans-69"/>
     <path d="M 18.109375 8.203125 
L 18.109375 -20.796875 
L 9.078125 -20.796875 
L 9.078125 54.6875 
L 18.109375 54.6875 
L 18.109375 46.390625 
Q 20.953125 51.265625 25.265625 53.625 
Q 29.59375 56 35.59375 56 
Q 45.5625 56 51.78125 48.09375 
Q 58.015625 40.1875 58.015625 27.296875 
Q 58.015625 14.40625 51.78125 6.484375 
Q 45.5625 -1.421875 35.59375 -1.421875 
Q 29.59375 -1.421875 25.265625 0.953125 
Q 20.953125 3.328125 18.109375 8.203125 
z
M 48.6875 27.296875 
Q 48.6875 37.203125 44.609375 42.84375 
Q 40.53125 48.484375 33.40625 48.484375 
Q 26.265625 48.484375 22.1875 42.84375 
Q 18.109375 37.203125 18.109375 27.296875 
Q 18.109375 17.390625 22.1875 11.75 
Q 26.265625 6.109375 33.40625 6.109375 
Q 40.53125 6.109375 44.609375 11.75 
Q 48.6875 17.390625 48.6875 27.296875 
z
" id="DejaVuSans-112"/>
     <path d="M 9.421875 54.6875 
L 18.40625 54.6875 
L 18.40625 0 
L 9.421875 0 
z
M 9.421875 75.984375 
L 18.40625 75.984375 
L 18.40625 64.59375 
L 9.421875 64.59375 
z
" id="DejaVuSans-105"/>
     <path d="M 44.28125 53.078125 
L 44.28125 44.578125 
Q 40.484375 46.53125 36.375 47.5 
Q 32.28125 48.484375 27.875 48.484375 
Q 21.1875 48.484375 17.84375 46.4375 
Q 14.5 44.390625 14.5 40.28125 
Q 14.5 37.15625 16.890625 35.375 
Q 19.28125 33.59375 26.515625 31.984375 
L 29.59375 31.296875 
Q 39.15625 29.25 43.1875 25.515625 
Q 47.21875 21.78125 47.21875 15.09375 
Q 47.21875 7.46875 41.1875 3.015625 
Q 35.15625 -1.421875 24.609375 -1.421875 
Q 20.21875 -1.421875 15.453125 -0.5625 
Q 10.6875 0.296875 5.421875 2 
L 5.421875 11.28125 
Q 10.40625 8.6875 15.234375 7.390625 
Q 20.0625 6.109375 24.8125 6.109375 
Q 31.15625 6.109375 34.5625 8.28125 
Q 37.984375 10.453125 37.984375 14.40625 
Q 37.984375 18.0625 35.515625 20.015625 
Q 33.0625 21.96875 24.703125 23.78125 
L 21.578125 24.515625 
Q 13.234375 26.265625 9.515625 29.90625 
Q 5.8125 33.546875 5.8125 39.890625 
Q 5.8125 47.609375 11.28125 51.796875 
Q 16.75 56 26.8125 56 
Q 31.78125 56 36.171875 55.265625 
Q 40.578125 54.546875 44.28125 53.078125 
z
" id="DejaVuSans-115"/>
     <path d="M 30.609375 48.390625 
Q 23.390625 48.390625 19.1875 42.75 
Q 14.984375 37.109375 14.984375 27.296875 
Q 14.984375 17.484375 19.15625 11.84375 
Q 23.34375 6.203125 30.609375 6.203125 
Q 37.796875 6.203125 41.984375 11.859375 
Q 46.1875 17.53125 46.1875 27.296875 
Q 46.1875 37.015625 41.984375 42.703125 
Q 37.796875 48.390625 30.609375 48.390625 
z
M 30.609375 56 
Q 42.328125 56 49.015625 48.375 
Q 55.71875 40.765625 55.71875 27.296875 
Q 55.71875 13.875 49.015625 6.21875 
Q 42.328125 -1.421875 30.609375 -1.421875 
Q 18.84375 -1.421875 12.171875 6.21875 
Q 5.515625 13.875 5.515625 27.296875 
Q 5.515625 40.765625 12.171875 48.375 
Q 18.84375 56 30.609375 56 
z
" id="DejaVuSans-111"/>
     <path d="M 45.40625 46.390625 
L 45.40625 75.984375 
L 54.390625 75.984375 
L 54.390625 0 
L 45.40625 0 
L 45.40625 8.203125 
Q 42.578125 3.328125 38.25 0.953125 
Q 33.9375 -1.421875 27.875 -1.421875 
Q 17.96875 -1.421875 11.734375 6.484375 
Q 5.515625 14.40625 5.515625 27.296875 
Q 5.515625 40.1875 11.734375 48.09375 
Q 17.96875 56 27.875 56 
Q 33.9375 56 38.25 53.625 
Q 42.578125 51.265625 45.40625 46.390625 
z
M 14.796875 27.296875 
Q 14.796875 17.390625 18.875 11.75 
Q 22.953125 6.109375 30.078125 6.109375 
Q 37.203125 6.109375 41.296875 11.75 
Q 45.40625 17.390625 45.40625 27.296875 
Q 45.40625 37.203125 41.296875 42.84375 
Q 37.203125 48.484375 30.078125 48.484375 
Q 22.953125 48.484375 18.875 42.84375 
Q 14.796875 37.203125 14.796875 27.296875 
z
" id="DejaVuSans-100"/>
     <path d="M 48.78125 52.59375 
L 48.78125 44.1875 
Q 44.96875 46.296875 41.140625 47.34375 
Q 37.3125 48.390625 33.40625 48.390625 
Q 24.65625 48.390625 19.8125 42.84375 
Q 14.984375 37.3125 14.984375 27.296875 
Q 14.984375 17.28125 19.8125 11.734375 
Q 24.65625 6.203125 33.40625 6.203125 
Q 37.3125 6.203125 41.140625 7.25 
Q 44.96875 8.296875 48.78125 10.40625 
L 48.78125 2.09375 
Q 45.015625 0.34375 40.984375 -0.53125 
Q 36.96875 -1.421875 32.421875 -1.421875 
Q 20.0625 -1.421875 12.78125 6.34375 
Q 5.515625 14.109375 5.515625 27.296875 
Q 5.515625 40.671875 12.859375 48.328125 
Q 20.21875 56 33.015625 56 
Q 37.15625 56 41.109375 55.140625 
Q 45.0625 54.296875 48.78125 52.59375 
z
" id="DejaVuSans-99"/>
     <path id="DejaVuSans-32"/>
     <path d="M 44.390625 34.1875 
Q 47.5625 33.109375 50.5625 29.59375 
Q 53.5625 26.078125 56.59375 19.921875 
L 66.609375 0 
L 56 0 
L 46.6875 18.703125 
Q 43.0625 26.03125 39.671875 28.421875 
Q 36.28125 30.8125 30.421875 30.8125 
L 19.671875 30.8125 
L 19.671875 0 
L 9.8125 0 
L 9.8125 72.90625 
L 32.078125 72.90625 
Q 44.578125 72.90625 50.734375 67.671875 
Q 56.890625 62.453125 56.890625 51.90625 
Q 56.890625 45.015625 53.6875 40.46875 
Q 50.484375 35.9375 44.390625 34.1875 
z
M 19.671875 64.796875 
L 19.671875 38.921875 
L 32.078125 38.921875 
Q 39.203125 38.921875 42.84375 42.21875 
Q 46.484375 45.515625 46.484375 51.90625 
Q 46.484375 58.296875 42.84375 61.546875 
Q 39.203125 64.796875 32.078125 64.796875 
z
" id="DejaVuSans-82"/>
     <path d="M 56.203125 29.59375 
L 56.203125 25.203125 
L 14.890625 25.203125 
Q 15.484375 15.921875 20.484375 11.0625 
Q 25.484375 6.203125 34.421875 6.203125 
Q 39.59375 6.203125 44.453125 7.46875 
Q 49.3125 8.734375 54.109375 11.28125 
L 54.109375 2.78125 
Q 49.265625 0.734375 44.1875 -0.34375 
Q 39.109375 -1.421875 33.890625 -1.421875 
Q 20.796875 -1.421875 13.15625 6.1875 
Q 5.515625 13.8125 5.515625 26.8125 
Q 5.515625 40.234375 12.765625 48.109375 
Q 20.015625 56 32.328125 56 
Q 43.359375 56 49.78125 48.890625 
Q 56.203125 41.796875 56.203125 29.59375 
z
M 47.21875 32.234375 
Q 47.125 39.59375 43.09375 43.984375 
Q 39.0625 48.390625 32.421875 48.390625 
Q 24.90625 48.390625 20.390625 44.140625 
Q 15.875 39.890625 15.1875 32.171875 
z
" id="DejaVuSans-101"/>
     <path d="M 18.3125 70.21875 
L 18.3125 54.6875 
L 36.8125 54.6875 
L 36.8125 47.703125 
L 18.3125 47.703125 
L 18.3125 18.015625 
Q 18.3125 11.328125 20.140625 9.421875 
Q 21.96875 7.515625 27.59375 7.515625 
L 36.8125 7.515625 
L 36.8125 0 
L 27.59375 0 
Q 17.1875 0 13.234375 3.875 
Q 9.28125 7.765625 9.28125 18.015625 
L 9.28125 47.703125 
L 2.6875 47.703125 
L 2.6875 54.6875 
L 9.28125 54.6875 
L 9.28125 70.21875 
z
" id="DejaVuSans-116"/>
     <path d="M 8.5 21.578125 
L 8.5 54.6875 
L 17.484375 54.6875 
L 17.484375 21.921875 
Q 17.484375 14.15625 20.5 10.265625 
Q 23.53125 6.390625 29.59375 6.390625 
Q 36.859375 6.390625 41.078125 11.03125 
Q 45.3125 15.671875 45.3125 23.6875 
L 45.3125 54.6875 
L 54.296875 54.6875 
L 54.296875 0 
L 45.3125 0 
L 45.3125 8.40625 
Q 42.046875 3.421875 37.71875 1 
Q 33.40625 -1.421875 27.6875 -1.421875 
Q 18.265625 -1.421875 13.375 4.4375 
Q 8.5 10.296875 8.5 21.578125 
z
M 31.109375 56 
z
" id="DejaVuSans-117"/>
     <path d="M 41.109375 46.296875 
Q 39.59375 47.171875 37.8125 47.578125 
Q 36.03125 48 33.890625 48 
Q 26.265625 48 22.1875 43.046875 
Q 18.109375 38.09375 18.109375 28.8125 
L 18.109375 0 
L 9.078125 0 
L 9.078125 54.6875 
L 18.109375 54.6875 
L 18.109375 46.1875 
Q 20.953125 51.171875 25.484375 53.578125 
Q 30.03125 56 36.53125 56 
Q 37.453125 56 38.578125 55.875 
Q 39.703125 55.765625 41.0625 55.515625 
z
" id="DejaVuSans-114"/>
     <path d="M 54.890625 33.015625 
L 54.890625 0 
L 45.90625 0 
L 45.90625 32.71875 
Q 45.90625 40.484375 42.875 44.328125 
Q 39.84375 48.1875 33.796875 48.1875 
Q 26.515625 48.1875 22.3125 43.546875 
Q 18.109375 38.921875 18.109375 30.90625 
L 18.109375 0 
L 9.078125 0 
L 9.078125 54.6875 
L 18.109375 54.6875 
L 18.109375 46.1875 
Q 21.34375 51.125 25.703125 53.5625 
Q 30.078125 56 35.796875 56 
Q 45.21875 56 50.046875 50.171875 
Q 54.890625 44.34375 54.890625 33.015625 
z
" id="DejaVuSans-110"/>
    </defs>
    <g transform="translate(209.461563 16.318125)scale(0.12 -0.12)">
     <use xlink:href="#DejaVuSans-69"/>
     <use x="63.183594" xlink:href="#DejaVuSans-112"/>
     <use x="126.660156" xlink:href="#DejaVuSans-105"/>
     <use x="154.443359" xlink:href="#DejaVuSans-115"/>
     <use x="206.542969" xlink:href="#DejaVuSans-111"/>
     <use x="267.724609" xlink:href="#DejaVuSans-100"/>
     <use x="331.201172" xlink:href="#DejaVuSans-105"/>
     <use x="358.984375" xlink:href="#DejaVuSans-99"/>
     <use x="413.964844" xlink:href="#DejaVuSans-32"/>
     <use x="445.751953" xlink:href="#DejaVuSans-82"/>
     <use x="515.171875" xlink:href="#DejaVuSans-101"/>
     <use x="576.695312" xlink:href="#DejaVuSans-116"/>
     <use x="615.904297" xlink:href="#DejaVuSans-117"/>
     <use x="679.283203" xlink:href="#DejaVuSans-114"/>
     <use x="720.380859" xlink:href="#DejaVuSans-110"/>
    </g>
   </g>
  </g>
 </g>
 <defs>
  <clipPath id="pcf9ef68f0a">
   <rect height="271.8" width="446.4" x="33.2875" y="22.318125"/>
  </clipPath>
 </defs>
</svg>
