<?xml version="1.0" encoding="utf-8" standalone="no"?>
<!DOCTYPE svg PUBLIC "-//W3C//DTD SVG 1.1//EN"
  "http://www.w3.org/Graphics/SVG/1.1/DTD/svg11.dtd">
<!-- Created with matplotlib (http://matplotlib.org/) -->
<svg height="317pt" version="1.1" viewBox="0 0 943 317" width="943pt" xmlns="http://www.w3.org/2000/svg" xmlns:xlink="http://www.w3.org/1999/xlink">
 <defs>
  <style type="text/css">
*{stroke-linecap:butt;stroke-linejoin:round;}
  </style>
 </defs>
 <g id="figure_1">
  <g id="patch_1">
   <path d="M 0 317.99625 
L 943.15 317.99625 
L 943.15 0 
L 0 0 
z
" style="fill:#ffffff;"/>
  </g>
  <g id="axes_1">
   <g id="patch_2">
    <path d="M 39.65 294.118125 
L 445.468182 294.118125 
L 445.468182 22.318125 
L 39.65 22.318125 
z
" style="fill:#ffffff;"/>
   </g>
   <g id="matplotlib.axis_1">
    <g id="xtick_1">
     <g id="line2d_1">
      <defs>
       <path d="M 0 0 
L 0 3.5 
" id="m38c813e64a" style="stroke:#000000;stroke-width:0.8;"/>
      </defs>
      <g>
       <use style="stroke:#000000;stroke-width:0.8;" x="58.096281" xlink:href="#m38c813e64a" y="294.118125"/>
      </g>
     </g>
     <g id="text_1">
      <!-- 0 -->
      <defs>
       <path d="M 31.78125 66.40625 
Q 24.171875 66.40625 20.328125 58.90625 
Q 16.5 51.421875 16.5 36.375 
Q 16.5 21.390625 20.328125 13.890625 
Q 24.171875 6.390625 31.78125 6.390625 
Q 39.453125 6.390625 43.28125 13.890625 
Q 47.125 21.390625 47.125 36.375 
Q 47.125 51.421875 43.28125 58.90625 
Q 39.453125 66.40625 31.78125 66.40625 
z
M 31.78125 74.21875 
Q 44.046875 74.21875 50.515625 64.515625 
Q 56.984375 54.828125 56.984375 36.375 
Q 56.984375 17.96875 50.515625 8.265625 
Q 44.046875 -1.421875 31.78125 -1.421875 
Q 19.53125 -1.421875 13.0625 8.265625 
Q 6.59375 17.96875 6.59375 36.375 
Q 6.59375 54.828125 13.0625 64.515625 
Q 19.53125 74.21875 31.78125 74.21875 
z
" id="DejaVuSans-30"/>
      </defs>
      <g transform="translate(54.915031 308.716563)scale(0.1 -0.1)">
       <use xlink:href="#DejaVuSans-30"/>
      </g>
     </g>
    </g>
    <g id="xtick_2">
     <g id="line2d_2">
      <g>
       <use style="stroke:#000000;stroke-width:0.8;" x="117.12438" xlink:href="#m38c813e64a" y="294.118125"/>
      </g>
     </g>
     <g id="text_2">
      <!-- 20 -->
      <defs>
       <path d="M 19.1875 8.296875 
L 53.609375 8.296875 
L 53.609375 0 
L 7.328125 0 
L 7.328125 8.296875 
Q 12.9375 14.109375 22.625 23.890625 
Q 32.328125 33.6875 34.8125 36.53125 
Q 39.546875 41.84375 41.421875 45.53125 
Q 43.3125 49.21875 43.3125 52.78125 
Q 43.3125 58.59375 39.234375 62.25 
Q 35.15625 65.921875 28.609375 65.921875 
Q 23.96875 65.921875 18.8125 64.3125 
Q 13.671875 62.703125 7.8125 59.421875 
L 7.8125 69.390625 
Q 13.765625 71.78125 18.9375 73 
Q 24.125 74.21875 28.421875 74.21875 
Q 39.75 74.21875 46.484375 68.546875 
Q 53.21875 62.890625 53.21875 53.421875 
Q 53.21875 48.921875 51.53125 44.890625 
Q 49.859375 40.875 45.40625 35.40625 
Q 44.1875 33.984375 37.640625 27.21875 
Q 31.109375 20.453125 19.1875 8.296875 
z
" id="DejaVuSans-32"/>
      </defs>
      <g transform="translate(110.76188 308.716563)scale(0.1 -0.1)">
       <use xlink:href="#DejaVuSans-32"/>
       <use x="63.623047" xlink:href="#DejaVuSans-30"/>
      </g>
     </g>
    </g>
    <g id="xtick_3">
     <g id="line2d_3">
      <g>
       <use style="stroke:#000000;stroke-width:0.8;" x="176.152479" xlink:href="#m38c813e64a" y="294.118125"/>
      </g>
     </g>
     <g id="text_3">
      <!-- 40 -->
      <defs>
       <path d="M 37.796875 64.3125 
L 12.890625 25.390625 
L 37.796875 25.390625 
z
M 35.203125 72.90625 
L 47.609375 72.90625 
L 47.609375 25.390625 
L 58.015625 25.390625 
L 58.015625 17.1875 
L 47.609375 17.1875 
L 47.609375 0 
L 37.796875 0 
L 37.796875 17.1875 
L 4.890625 17.1875 
L 4.890625 26.703125 
z
" id="DejaVuSans-34"/>
      </defs>
      <g transform="translate(169.789979 308.716563)scale(0.1 -0.1)">
       <use xlink:href="#DejaVuSans-34"/>
       <use x="63.623047" xlink:href="#DejaVuSans-30"/>
      </g>
     </g>
    </g>
    <g id="xtick_4">
     <g id="line2d_4">
      <g>
       <use style="stroke:#000000;stroke-width:0.8;" x="235.180579" xlink:href="#m38c813e64a" y="294.118125"/>
      </g>
     </g>
     <g id="text_4">
      <!-- 60 -->
      <defs>
       <path d="M 33.015625 40.375 
Q 26.375 40.375 22.484375 35.828125 
Q 18.609375 31.296875 18.609375 23.390625 
Q 18.609375 15.53125 22.484375 10.953125 
Q 26.375 6.390625 33.015625 6.390625 
Q 39.65625 6.390625 43.53125 10.953125 
Q 47.40625 15.53125 47.40625 23.390625 
Q 47.40625 31.296875 43.53125 35.828125 
Q 39.65625 40.375 33.015625 40.375 
z
M 52.59375 71.296875 
L 52.59375 62.3125 
Q 48.875 64.0625 45.09375 64.984375 
Q 41.3125 65.921875 37.59375 65.921875 
Q 27.828125 65.921875 22.671875 59.328125 
Q 17.53125 52.734375 16.796875 39.40625 
Q 19.671875 43.65625 24.015625 45.921875 
Q 28.375 48.1875 33.59375 48.1875 
Q 44.578125 48.1875 50.953125 41.515625 
Q 57.328125 34.859375 57.328125 23.390625 
Q 57.328125 12.15625 50.6875 5.359375 
Q 44.046875 -1.421875 33.015625 -1.421875 
Q 20.359375 -1.421875 13.671875 8.265625 
Q 6.984375 17.96875 6.984375 36.375 
Q 6.984375 53.65625 15.1875 63.9375 
Q 23.390625 74.21875 37.203125 74.21875 
Q 40.921875 74.21875 44.703125 73.484375 
Q 48.484375 72.75 52.59375 71.296875 
z
" id="DejaVuSans-36"/>
      </defs>
      <g transform="translate(228.818079 308.716563)scale(0.1 -0.1)">
       <use xlink:href="#DejaVuSans-36"/>
       <use x="63.623047" xlink:href="#DejaVuSans-30"/>
      </g>
     </g>
    </g>
    <g id="xtick_5">
     <g id="line2d_5">
      <g>
       <use style="stroke:#000000;stroke-width:0.8;" x="294.208678" xlink:href="#m38c813e64a" y="294.118125"/>
      </g>
     </g>
     <g id="text_5">
      <!-- 80 -->
      <defs>
       <path d="M 31.78125 34.625 
Q 24.75 34.625 20.71875 30.859375 
Q 16.703125 27.09375 16.703125 20.515625 
Q 16.703125 13.921875 20.71875 10.15625 
Q 24.75 6.390625 31.78125 6.390625 
Q 38.8125 6.390625 42.859375 10.171875 
Q 46.921875 13.96875 46.921875 20.515625 
Q 46.921875 27.09375 42.890625 30.859375 
Q 38.875 34.625 31.78125 34.625 
z
M 21.921875 38.8125 
Q 15.578125 40.375 12.03125 44.71875 
Q 8.5 49.078125 8.5 55.328125 
Q 8.5 64.0625 14.71875 69.140625 
Q 20.953125 74.21875 31.78125 74.21875 
Q 42.671875 74.21875 48.875 69.140625 
Q 55.078125 64.0625 55.078125 55.328125 
Q 55.078125 49.078125 51.53125 44.71875 
Q 48 40.375 41.703125 38.8125 
Q 48.828125 37.15625 52.796875 32.3125 
Q 56.78125 27.484375 56.78125 20.515625 
Q 56.78125 9.90625 50.3125 4.234375 
Q 43.84375 -1.421875 31.78125 -1.421875 
Q 19.734375 -1.421875 13.25 4.234375 
Q 6.78125 9.90625 6.78125 20.515625 
Q 6.78125 27.484375 10.78125 32.3125 
Q 14.796875 37.15625 21.921875 38.8125 
z
M 18.3125 54.390625 
Q 18.3125 48.734375 21.84375 45.5625 
Q 25.390625 42.390625 31.78125 42.390625 
Q 38.140625 42.390625 41.71875 45.5625 
Q 45.3125 48.734375 45.3125 54.390625 
Q 45.3125 60.0625 41.71875 63.234375 
Q 38.140625 66.40625 31.78125 66.40625 
Q 25.390625 66.40625 21.84375 63.234375 
Q 18.3125 60.0625 18.3125 54.390625 
z
" id="DejaVuSans-38"/>
      </defs>
      <g transform="translate(287.846178 308.716563)scale(0.1 -0.1)">
       <use xlink:href="#DejaVuSans-38"/>
       <use x="63.623047" xlink:href="#DejaVuSans-30"/>
      </g>
     </g>
    </g>
    <g id="xtick_6">
     <g id="line2d_6">
      <g>
       <use style="stroke:#000000;stroke-width:0.8;" x="353.236777" xlink:href="#m38c813e64a" y="294.118125"/>
      </g>
     </g>
     <g id="text_6">
      <!-- 100 -->
      <defs>
       <path d="M 12.40625 8.296875 
L 28.515625 8.296875 
L 28.515625 63.921875 
L 10.984375 60.40625 
L 10.984375 69.390625 
L 28.421875 72.90625 
L 38.28125 72.90625 
L 38.28125 8.296875 
L 54.390625 8.296875 
L 54.390625 0 
L 12.40625 0 
z
" id="DejaVuSans-31"/>
      </defs>
      <g transform="translate(343.693027 308.716563)scale(0.1 -0.1)">
       <use xlink:href="#DejaVuSans-31"/>
       <use x="63.623047" xlink:href="#DejaVuSans-30"/>
       <use x="127.246094" xlink:href="#DejaVuSans-30"/>
      </g>
     </g>
    </g>
    <g id="xtick_7">
     <g id="line2d_7">
      <g>
       <use style="stroke:#000000;stroke-width:0.8;" x="412.264876" xlink:href="#m38c813e64a" y="294.118125"/>
      </g>
     </g>
     <g id="text_7">
      <!-- 120 -->
      <g transform="translate(402.721126 308.716563)scale(0.1 -0.1)">
       <use xlink:href="#DejaVuSans-31"/>
       <use x="63.623047" xlink:href="#DejaVuSans-32"/>
       <use x="127.246094" xlink:href="#DejaVuSans-30"/>
      </g>
     </g>
    </g>
   </g>
   <g id="matplotlib.axis_2">
    <g id="ytick_1">
     <g id="line2d_8">
      <defs>
       <path d="M 0 0 
L -3.5 0 
" id="mf2a552ea44" style="stroke:#000000;stroke-width:0.8;"/>
      </defs>
      <g>
       <use style="stroke:#000000;stroke-width:0.8;" x="39.65" xlink:href="#mf2a552ea44" y="280.359654"/>
      </g>
     </g>
     <g id="text_8">
      <!-- 250 -->
      <defs>
       <path d="M 10.796875 72.90625 
L 49.515625 72.90625 
L 49.515625 64.59375 
L 19.828125 64.59375 
L 19.828125 46.734375 
Q 21.96875 47.46875 24.109375 47.828125 
Q 26.265625 48.1875 28.421875 48.1875 
Q 40.625 48.1875 47.75 41.5 
Q 54.890625 34.8125 54.890625 23.390625 
Q 54.890625 11.625 47.5625 5.09375 
Q 40.234375 -1.421875 26.90625 -1.421875 
Q 22.3125 -1.421875 17.546875 -0.640625 
Q 12.796875 0.140625 7.71875 1.703125 
L 7.71875 11.625 
Q 12.109375 9.234375 16.796875 8.0625 
Q 21.484375 6.890625 26.703125 6.890625 
Q 35.15625 6.890625 40.078125 11.328125 
Q 45.015625 15.765625 45.015625 23.390625 
Q 45.015625 31 40.078125 35.4375 
Q 35.15625 39.890625 26.703125 39.890625 
Q 22.75 39.890625 18.8125 39.015625 
Q 14.890625 38.140625 10.796875 36.28125 
z
" id="DejaVuSans-35"/>
      </defs>
      <g transform="translate(13.5625 284.158873)scale(0.1 -0.1)">
       <use xlink:href="#DejaVuSans-32"/>
       <use x="63.623047" xlink:href="#DejaVuSans-35"/>
       <use x="127.246094" xlink:href="#DejaVuSans-30"/>
      </g>
     </g>
    </g>
    <g id="ytick_2">
     <g id="line2d_9">
      <g>
       <use style="stroke:#000000;stroke-width:0.8;" x="39.65" xlink:href="#mf2a552ea44" y="245.261513"/>
      </g>
     </g>
     <g id="text_9">
      <!-- 500 -->
      <g transform="translate(13.5625 249.060732)scale(0.1 -0.1)">
       <use xlink:href="#DejaVuSans-35"/>
       <use x="63.623047" xlink:href="#DejaVuSans-30"/>
       <use x="127.246094" xlink:href="#DejaVuSans-30"/>
      </g>
     </g>
    </g>
    <g id="ytick_3">
     <g id="line2d_10">
      <g>
       <use style="stroke:#000000;stroke-width:0.8;" x="39.65" xlink:href="#mf2a552ea44" y="210.163373"/>
      </g>
     </g>
     <g id="text_10">
      <!-- 750 -->
      <defs>
       <path d="M 8.203125 72.90625 
L 55.078125 72.90625 
L 55.078125 68.703125 
L 28.609375 0 
L 18.3125 0 
L 43.21875 64.59375 
L 8.203125 64.59375 
z
" id="DejaVuSans-37"/>
      </defs>
      <g transform="translate(13.5625 213.962592)scale(0.1 -0.1)">
       <use xlink:href="#DejaVuSans-37"/>
       <use x="63.623047" xlink:href="#DejaVuSans-35"/>
       <use x="127.246094" xlink:href="#DejaVuSans-30"/>
      </g>
     </g>
    </g>
    <g id="ytick_4">
     <g id="line2d_11">
      <g>
       <use style="stroke:#000000;stroke-width:0.8;" x="39.65" xlink:href="#mf2a552ea44" y="175.065232"/>
      </g>
     </g>
     <g id="text_11">
      <!-- 1000 -->
      <g transform="translate(7.2 178.864451)scale(0.1 -0.1)">
       <use xlink:href="#DejaVuSans-31"/>
       <use x="63.623047" xlink:href="#DejaVuSans-30"/>
       <use x="127.246094" xlink:href="#DejaVuSans-30"/>
       <use x="190.869141" xlink:href="#DejaVuSans-30"/>
      </g>
     </g>
    </g>
    <g id="ytick_5">
     <g id="line2d_12">
      <g>
       <use style="stroke:#000000;stroke-width:0.8;" x="39.65" xlink:href="#mf2a552ea44" y="139.967092"/>
      </g>
     </g>
     <g id="text_12">
      <!-- 1250 -->
      <g transform="translate(7.2 143.766311)scale(0.1 -0.1)">
       <use xlink:href="#DejaVuSans-31"/>
       <use x="63.623047" xlink:href="#DejaVuSans-32"/>
       <use x="127.246094" xlink:href="#DejaVuSans-35"/>
       <use x="190.869141" xlink:href="#DejaVuSans-30"/>
      </g>
     </g>
    </g>
    <g id="ytick_6">
     <g id="line2d_13">
      <g>
       <use style="stroke:#000000;stroke-width:0.8;" x="39.65" xlink:href="#mf2a552ea44" y="104.868951"/>
      </g>
     </g>
     <g id="text_13">
      <!-- 1500 -->
      <g transform="translate(7.2 108.66817)scale(0.1 -0.1)">
       <use xlink:href="#DejaVuSans-31"/>
       <use x="63.623047" xlink:href="#DejaVuSans-35"/>
       <use x="127.246094" xlink:href="#DejaVuSans-30"/>
       <use x="190.869141" xlink:href="#DejaVuSans-30"/>
      </g>
     </g>
    </g>
    <g id="ytick_7">
     <g id="line2d_14">
      <g>
       <use style="stroke:#000000;stroke-width:0.8;" x="39.65" xlink:href="#mf2a552ea44" y="69.770811"/>
      </g>
     </g>
     <g id="text_14">
      <!-- 1750 -->
      <g transform="translate(7.2 73.57003)scale(0.1 -0.1)">
       <use xlink:href="#DejaVuSans-31"/>
       <use x="63.623047" xlink:href="#DejaVuSans-37"/>
       <use x="127.246094" xlink:href="#DejaVuSans-35"/>
       <use x="190.869141" xlink:href="#DejaVuSans-30"/>
      </g>
     </g>
    </g>
    <g id="ytick_8">
     <g id="line2d_15">
      <g>
       <use style="stroke:#000000;stroke-width:0.8;" x="39.65" xlink:href="#mf2a552ea44" y="34.67267"/>
      </g>
     </g>
     <g id="text_15">
      <!-- 2000 -->
      <g transform="translate(7.2 38.471889)scale(0.1 -0.1)">
       <use xlink:href="#DejaVuSans-32"/>
       <use x="63.623047" xlink:href="#DejaVuSans-30"/>
       <use x="127.246094" xlink:href="#DejaVuSans-30"/>
       <use x="190.869141" xlink:href="#DejaVuSans-30"/>
      </g>
     </g>
    </g>
   </g>
   <g id="line2d_16">
    <path clip-path="url(#pfd12fe4e26)" d="M 58.096281 63.763179 
L 61.047686 63.763179 
L 63.999091 63.763179 
L 66.950496 63.763179 
L 69.901901 64.055664 
L 72.853306 64.055664 
L 75.804711 64.055664 
L 78.756116 64.055664 
L 81.707521 64.055664 
L 84.658926 64.055664 
L 87.610331 64.055664 
L 90.561736 64.055664 
L 93.51314 64.055664 
L 96.464545 56.181981 
L 99.41595 65.962663 
L 102.367355 75.287069 
L 105.31876 71.590065 
L 108.270165 71.590065 
L 111.22157 71.590065 
L 114.172975 71.590065 
L 117.12438 79.586591 
L 120.075785 79.586591 
L 123.02719 79.586591 
L 125.978595 70.127642 
L 128.93 70.127642 
L 131.881405 70.127642 
L 134.83281 70.127642 
L 137.784215 70.127642 
L 140.73562 70.250486 
L 143.687025 70.250486 
L 146.63843 79.492996 
L 149.589835 79.492996 
L 152.54124 79.492996 
L 155.492645 87.53047 
L 158.44405 87.53047 
L 161.395455 87.53047 
L 164.34686 87.53047 
L 167.298264 87.53047 
L 170.249669 77.749788 
L 173.201074 76.638347 
L 176.152479 76.638347 
L 179.103884 86.606219 
L 182.055289 86.606219 
L 185.006694 86.606219 
L 187.958099 78.609693 
L 190.909504 86.787559 
L 193.860909 86.787559 
L 196.812314 94.257614 
L 199.763719 94.257614 
L 202.715124 104.061694 
L 205.666529 104.061694 
L 208.617934 114.234305 
L 211.569339 105.758104 
L 214.520744 115.883918 
L 217.472149 106.641408 
L 220.423554 106.641408 
L 223.374959 116.585881 
L 226.326364 118.229644 
L 229.277769 118.229644 
L 232.229174 127.934279 
L 235.180579 137.820256 
L 238.131983 137.820256 
L 241.083388 137.820256 
L 244.034793 129.607291 
L 246.986198 139.604411 
L 249.937603 139.545914 
L 252.889008 149.466989 
L 255.840413 149.466989 
L 258.791818 159.241821 
L 261.743223 161.131271 
L 264.694628 161.131271 
L 267.646033 153.661216 
L 270.597438 163.254708 
L 273.548843 153.450628 
L 276.500248 162.108169 
L 279.451653 151.935558 
L 282.403058 161.862482 
L 285.354463 151.736668 
L 288.305868 160.534602 
L 291.257273 160.534602 
L 294.208678 150.590129 
L 297.160083 150.818267 
L 300.111488 150.818267 
L 303.062893 141.113631 
L 306.014298 141.254024 
L 308.965702 151.549478 
L 311.917107 151.549478 
L 314.868512 151.549478 
L 317.819917 150.95281 
L 320.771322 150.1982 
L 323.722727 150.104605 
L 326.674132 150.104605 
L 329.625537 140.329773 
L 332.576942 140.359021 
L 335.528347 145.366356 
L 338.479752 155.381025 
L 341.431157 155.498019 
L 344.382562 155.498019 
L 347.333967 146.840478 
L 350.285372 146.840478 
L 353.236777 146.524595 
L 356.188182 146.524595 
L 359.139587 146.384202 
L 362.090992 156.129786 
L 365.042397 166.314096 
L 367.993802 156.404721 
L 370.945207 166.185403 
L 373.896612 175.966085 
L 376.848017 165.939716 
L 379.799421 155.644261 
L 382.750826 155.644261 
L 385.702231 155.644261 
L 388.653636 155.024194 
L 391.605041 145.869429 
L 394.556446 136.04195 
L 397.507851 146.23211 
L 400.459256 156.006942 
L 403.410661 145.910377 
L 406.362066 150.829966 
L 409.313471 149.619081 
L 412.264876 139.908595 
L 415.216281 139.908595 
L 418.167686 146.273058 
L 421.119091 152.742815 
L 424.070496 152.040852 
L 427.021901 161.453004 
" style="fill:none;stroke:#1f77b4;stroke-linecap:square;stroke-width:1.5;"/>
   </g>
   <g id="line2d_17">
    <path clip-path="url(#pfd12fe4e26)" d="M 58.096281 34.67267 
L 61.047686 34.67267 
L 63.999091 34.67267 
L 66.950496 34.67267 
L 69.901901 235.153249 
L 72.853306 34.67267 
L 75.804711 34.67267 
L 78.756116 34.67267 
L 81.707521 34.67267 
L 84.658926 34.67267 
L 87.610331 34.67267 
L 90.561736 34.67267 
L 93.51314 34.67267 
L 96.464545 34.67267 
L 99.41595 269.409034 
L 102.367355 258.458414 
L 105.31876 34.67267 
L 108.270165 34.67267 
L 111.22157 34.67267 
L 114.172975 34.67267 
L 117.12438 226.589303 
L 120.075785 34.67267 
L 123.02719 34.67267 
L 125.978595 34.67267 
L 128.93 34.67267 
L 131.881405 34.67267 
L 134.83281 34.67267 
L 137.784215 34.67267 
L 140.73562 238.101493 
L 143.687025 34.67267 
L 146.63843 256.492918 
L 149.589835 34.67267 
L 152.54124 34.67267 
L 155.492645 227.572051 
L 158.44405 34.67267 
L 161.395455 34.67267 
L 164.34686 34.67267 
L 167.298264 34.67267 
L 170.249669 34.67267 
L 173.201074 231.783827 
L 176.152479 34.67267 
L 179.103884 273.901596 
L 182.055289 34.67267 
L 185.006694 34.67267 
L 187.958099 34.67267 
L 190.909504 230.941472 
L 193.860909 34.67267 
L 196.812314 213.953972 
L 199.763719 34.67267 
L 202.715124 269.970604 
L 205.666529 34.67267 
L 208.617934 278.815336 
L 211.569339 34.67267 
L 214.520744 277.692195 
L 217.472149 34.67267 
L 220.423554 34.67267 
L 223.374959 273.340026 
L 226.326364 267.022361 
L 229.277769 34.67267 
L 232.229174 267.583931 
L 235.180579 271.9361 
L 238.131983 34.67267 
L 241.083388 34.67267 
L 244.034793 34.67267 
L 246.986198 274.603559 
L 249.937603 272.49767 
L 252.889008 272.778456 
L 255.840413 34.67267 
L 258.791818 269.268642 
L 261.743223 276.28827 
L 264.694628 34.67267 
L 267.646033 34.67267 
L 270.597438 264.916472 
L 273.548843 34.67267 
L 276.500248 242.453662 
L 279.451653 34.67267 
L 282.403058 272.918848 
L 285.354463 34.67267 
L 288.305868 245.823084 
L 291.257273 34.67267 
L 294.208678 34.67267 
L 297.160083 272.49767 
L 300.111488 34.67267 
L 303.062893 34.67267 
L 306.014298 275.305522 
L 308.965702 281.76358 
L 311.917107 34.67267 
L 314.868512 34.67267 
L 317.819917 260.283518 
L 320.771322 254.38703 
L 323.722727 270.532175 
L 326.674132 34.67267 
L 329.625537 34.67267 
L 332.576942 276.990232 
L 335.528347 154.848704 
L 338.479752 275.024737 
L 341.431157 267.724323 
L 344.382562 34.67267 
L 347.333967 34.67267 
L 350.285372 34.67267 
L 353.236777 265.33765 
L 356.188182 34.67267 
L 359.139587 242.453662 
L 362.090992 268.566679 
L 365.042397 279.096121 
L 367.993802 34.67267 
L 370.945207 269.409034 
L 373.896612 269.409034 
L 376.848017 34.67267 
L 379.799421 34.67267 
L 382.750826 34.67267 
L 385.702231 34.67267 
L 388.653636 245.401906 
L 391.605041 34.67267 
L 394.556446 34.67267 
L 397.507851 279.236513 
L 400.459256 269.268642 
L 403.410661 34.67267 
L 406.362066 272.918848 
L 409.313471 245.963476 
L 412.264876 34.67267 
L 415.216281 34.67267 
L 418.167686 187.419778 
L 421.119091 189.946844 
L 424.070496 248.490542 
L 427.021901 260.564303 
" style="fill:none;opacity:0.2;stroke:#1f77b4;stroke-linecap:square;stroke-width:1.5;"/>
   </g>
   <g id="patch_3">
    <path d="M 39.65 294.118125 
L 39.65 22.318125 
" style="fill:none;stroke:#000000;stroke-linecap:square;stroke-linejoin:miter;stroke-width:0.8;"/>
   </g>
   <g id="patch_4">
    <path d="M 445.468182 294.118125 
L 445.468182 22.318125 
" style="fill:none;stroke:#000000;stroke-linecap:square;stroke-linejoin:miter;stroke-width:0.8;"/>
   </g>
   <g id="patch_5">
    <path d="M 39.65 294.118125 
L 445.468182 294.118125 
" style="fill:none;stroke:#000000;stroke-linecap:square;stroke-linejoin:miter;stroke-width:0.8;"/>
   </g>
   <g id="patch_6">
    <path d="M 39.65 22.318125 
L 445.468182 22.318125 
" style="fill:none;stroke:#000000;stroke-linecap:square;stroke-linejoin:miter;stroke-width:0.8;"/>
   </g>
   <g id="text_16">
    <!-- Episode Length -->
    <defs>
     <path d="M 9.8125 72.90625 
L 55.90625 72.90625 
L 55.90625 64.59375 
L 19.671875 64.59375 
L 19.671875 43.015625 
L 54.390625 43.015625 
L 54.390625 34.71875 
L 19.671875 34.71875 
L 19.671875 8.296875 
L 56.78125 8.296875 
L 56.78125 0 
L 9.8125 0 
z
" id="DejaVuSans-45"/>
     <path d="M 18.109375 8.203125 
L 18.109375 -20.796875 
L 9.078125 -20.796875 
L 9.078125 54.6875 
L 18.109375 54.6875 
L 18.109375 46.390625 
Q 20.953125 51.265625 25.265625 53.625 
Q 29.59375 56 35.59375 56 
Q 45.5625 56 51.78125 48.09375 
Q 58.015625 40.1875 58.015625 27.296875 
Q 58.015625 14.40625 51.78125 6.484375 
Q 45.5625 -1.421875 35.59375 -1.421875 
Q 29.59375 -1.421875 25.265625 0.953125 
Q 20.953125 3.328125 18.109375 8.203125 
z
M 48.6875 27.296875 
Q 48.6875 37.203125 44.609375 42.84375 
Q 40.53125 48.484375 33.40625 48.484375 
Q 26.265625 48.484375 22.1875 42.84375 
Q 18.109375 37.203125 18.109375 27.296875 
Q 18.109375 17.390625 22.1875 11.75 
Q 26.265625 6.109375 33.40625 6.109375 
Q 40.53125 6.109375 44.609375 11.75 
Q 48.6875 17.390625 48.6875 27.296875 
z
" id="DejaVuSans-70"/>
     <path d="M 9.421875 54.6875 
L 18.40625 54.6875 
L 18.40625 0 
L 9.421875 0 
z
M 9.421875 75.984375 
L 18.40625 75.984375 
L 18.40625 64.59375 
L 9.421875 64.59375 
z
" id="DejaVuSans-69"/>
     <path d="M 44.28125 53.078125 
L 44.28125 44.578125 
Q 40.484375 46.53125 36.375 47.5 
Q 32.28125 48.484375 27.875 48.484375 
Q 21.1875 48.484375 17.84375 46.4375 
Q 14.5 44.390625 14.5 40.28125 
Q 14.5 37.15625 16.890625 35.375 
Q 19.28125 33.59375 26.515625 31.984375 
L 29.59375 31.296875 
Q 39.15625 29.25 43.1875 25.515625 
Q 47.21875 21.78125 47.21875 15.09375 
Q 47.21875 7.46875 41.1875 3.015625 
Q 35.15625 -1.421875 24.609375 -1.421875 
Q 20.21875 -1.421875 15.453125 -0.5625 
Q 10.6875 0.296875 5.421875 2 
L 5.421875 11.28125 
Q 10.40625 8.6875 15.234375 7.390625 
Q 20.0625 6.109375 24.8125 6.109375 
Q 31.15625 6.109375 34.5625 8.28125 
Q 37.984375 10.453125 37.984375 14.40625 
Q 37.984375 18.0625 35.515625 20.015625 
Q 33.0625 21.96875 24.703125 23.78125 
L 21.578125 24.515625 
Q 13.234375 26.265625 9.515625 29.90625 
Q 5.8125 33.546875 5.8125 39.890625 
Q 5.8125 47.609375 11.28125 51.796875 
Q 16.75 56 26.8125 56 
Q 31.78125 56 36.171875 55.265625 
Q 40.578125 54.546875 44.28125 53.078125 
z
" id="DejaVuSans-73"/>
     <path d="M 30.609375 48.390625 
Q 23.390625 48.390625 19.1875 42.75 
Q 14.984375 37.109375 14.984375 27.296875 
Q 14.984375 17.484375 19.15625 11.84375 
Q 23.34375 6.203125 30.609375 6.203125 
Q 37.796875 6.203125 41.984375 11.859375 
Q 46.1875 17.53125 46.1875 27.296875 
Q 46.1875 37.015625 41.984375 42.703125 
Q 37.796875 48.390625 30.609375 48.390625 
z
M 30.609375 56 
Q 42.328125 56 49.015625 48.375 
Q 55.71875 40.765625 55.71875 27.296875 
Q 55.71875 13.875 49.015625 6.21875 
Q 42.328125 -1.421875 30.609375 -1.421875 
Q 18.84375 -1.421875 12.171875 6.21875 
Q 5.515625 13.875 5.515625 27.296875 
Q 5.515625 40.765625 12.171875 48.375 
Q 18.84375 56 30.609375 56 
z
" id="DejaVuSans-6f"/>
     <path d="M 45.40625 46.390625 
L 45.40625 75.984375 
L 54.390625 75.984375 
L 54.390625 0 
L 45.40625 0 
L 45.40625 8.203125 
Q 42.578125 3.328125 38.25 0.953125 
Q 33.9375 -1.421875 27.875 -1.421875 
Q 17.96875 -1.421875 11.734375 6.484375 
Q 5.515625 14.40625 5.515625 27.296875 
Q 5.515625 40.1875 11.734375 48.09375 
Q 17.96875 56 27.875 56 
Q 33.9375 56 38.25 53.625 
Q 42.578125 51.265625 45.40625 46.390625 
z
M 14.796875 27.296875 
Q 14.796875 17.390625 18.875 11.75 
Q 22.953125 6.109375 30.078125 6.109375 
Q 37.203125 6.109375 41.296875 11.75 
Q 45.40625 17.390625 45.40625 27.296875 
Q 45.40625 37.203125 41.296875 42.84375 
Q 37.203125 48.484375 30.078125 48.484375 
Q 22.953125 48.484375 18.875 42.84375 
Q 14.796875 37.203125 14.796875 27.296875 
z
" id="DejaVuSans-64"/>
     <path d="M 56.203125 29.59375 
L 56.203125 25.203125 
L 14.890625 25.203125 
Q 15.484375 15.921875 20.484375 11.0625 
Q 25.484375 6.203125 34.421875 6.203125 
Q 39.59375 6.203125 44.453125 7.46875 
Q 49.3125 8.734375 54.109375 11.28125 
L 54.109375 2.78125 
Q 49.265625 0.734375 44.1875 -0.34375 
Q 39.109375 -1.421875 33.890625 -1.421875 
Q 20.796875 -1.421875 13.15625 6.1875 
Q 5.515625 13.8125 5.515625 26.8125 
Q 5.515625 40.234375 12.765625 48.109375 
Q 20.015625 56 32.328125 56 
Q 43.359375 56 49.78125 48.890625 
Q 56.203125 41.796875 56.203125 29.59375 
z
M 47.21875 32.234375 
Q 47.125 39.59375 43.09375 43.984375 
Q 39.0625 48.390625 32.421875 48.390625 
Q 24.90625 48.390625 20.390625 44.140625 
Q 15.875 39.890625 15.1875 32.171875 
z
" id="DejaVuSans-65"/>
     <path id="DejaVuSans-20"/>
     <path d="M 9.8125 72.90625 
L 19.671875 72.90625 
L 19.671875 8.296875 
L 55.171875 8.296875 
L 55.171875 0 
L 9.8125 0 
z
" id="DejaVuSans-4c"/>
     <path d="M 54.890625 33.015625 
L 54.890625 0 
L 45.90625 0 
L 45.90625 32.71875 
Q 45.90625 40.484375 42.875 44.328125 
Q 39.84375 48.1875 33.796875 48.1875 
Q 26.515625 48.1875 22.3125 43.546875 
Q 18.109375 38.921875 18.109375 30.90625 
L 18.109375 0 
L 9.078125 0 
L 9.078125 54.6875 
L 18.109375 54.6875 
L 18.109375 46.1875 
Q 21.34375 51.125 25.703125 53.5625 
Q 30.078125 56 35.796875 56 
Q 45.21875 56 50.046875 50.171875 
Q 54.890625 44.34375 54.890625 33.015625 
z
" id="DejaVuSans-6e"/>
     <path d="M 45.40625 27.984375 
Q 45.40625 37.75 41.375 43.109375 
Q 37.359375 48.484375 30.078125 48.484375 
Q 22.859375 48.484375 18.828125 43.109375 
Q 14.796875 37.75 14.796875 27.984375 
Q 14.796875 18.265625 18.828125 12.890625 
Q 22.859375 7.515625 30.078125 7.515625 
Q 37.359375 7.515625 41.375 12.890625 
Q 45.40625 18.265625 45.40625 27.984375 
z
M 54.390625 6.78125 
Q 54.390625 -7.171875 48.1875 -13.984375 
Q 42 -20.796875 29.203125 -20.796875 
Q 24.46875 -20.796875 20.265625 -20.09375 
Q 16.0625 -19.390625 12.109375 -17.921875 
L 12.109375 -9.1875 
Q 16.0625 -11.328125 19.921875 -12.34375 
Q 23.78125 -13.375 27.78125 -13.375 
Q 36.625 -13.375 41.015625 -8.765625 
Q 45.40625 -4.15625 45.40625 5.171875 
L 45.40625 9.625 
Q 42.625 4.78125 38.28125 2.390625 
Q 33.9375 0 27.875 0 
Q 17.828125 0 11.671875 7.65625 
Q 5.515625 15.328125 5.515625 27.984375 
Q 5.515625 40.671875 11.671875 48.328125 
Q 17.828125 56 27.875 56 
Q 33.9375 56 38.28125 53.609375 
Q 42.625 51.21875 45.40625 46.390625 
L 45.40625 54.6875 
L 54.390625 54.6875 
z
" id="DejaVuSans-67"/>
     <path d="M 18.3125 70.21875 
L 18.3125 54.6875 
L 36.8125 54.6875 
L 36.8125 47.703125 
L 18.3125 47.703125 
L 18.3125 18.015625 
Q 18.3125 11.328125 20.140625 9.421875 
Q 21.96875 7.515625 27.59375 7.515625 
L 36.8125 7.515625 
L 36.8125 0 
L 27.59375 0 
Q 17.1875 0 13.234375 3.875 
Q 9.28125 7.765625 9.28125 18.015625 
L 9.28125 47.703125 
L 2.6875 47.703125 
L 2.6875 54.6875 
L 9.28125 54.6875 
L 9.28125 70.21875 
z
" id="DejaVuSans-74"/>
     <path d="M 54.890625 33.015625 
L 54.890625 0 
L 45.90625 0 
L 45.90625 32.71875 
Q 45.90625 40.484375 42.875 44.328125 
Q 39.84375 48.1875 33.796875 48.1875 
Q 26.515625 48.1875 22.3125 43.546875 
Q 18.109375 38.921875 18.109375 30.90625 
L 18.109375 0 
L 9.078125 0 
L 9.078125 75.984375 
L 18.109375 75.984375 
L 18.109375 46.1875 
Q 21.34375 51.125 25.703125 53.5625 
Q 30.078125 56 35.796875 56 
Q 45.21875 56 50.046875 50.171875 
Q 54.890625 44.34375 54.890625 33.015625 
z
" id="DejaVuSans-68"/>
    </defs>
    <g transform="translate(196.286903 16.318125)scale(0.12 -0.12)">
     <use xlink:href="#DejaVuSans-45"/>
     <use x="63.183594" xlink:href="#DejaVuSans-70"/>
     <use x="126.660156" xlink:href="#DejaVuSans-69"/>
     <use x="154.443359" xlink:href="#DejaVuSans-73"/>
     <use x="206.542969" xlink:href="#DejaVuSans-6f"/>
     <use x="267.724609" xlink:href="#DejaVuSans-64"/>
     <use x="331.201172" xlink:href="#DejaVuSans-65"/>
     <use x="392.724609" xlink:href="#DejaVuSans-20"/>
     <use x="424.511719" xlink:href="#DejaVuSans-4c"/>
     <use x="480.208984" xlink:href="#DejaVuSans-65"/>
     <use x="541.732422" xlink:href="#DejaVuSans-6e"/>
     <use x="605.111328" xlink:href="#DejaVuSans-67"/>
     <use x="668.587891" xlink:href="#DejaVuSans-74"/>
     <use x="707.796875" xlink:href="#DejaVuSans-68"/>
    </g>
   </g>
  </g>
  <g id="axes_2">
   <g id="patch_7">
    <path d="M 526.631818 294.118125 
L 932.45 294.118125 
L 932.45 22.318125 
L 526.631818 22.318125 
z
" style="fill:#ffffff;"/>
   </g>
   <g id="matplotlib.axis_3">
    <g id="xtick_8">
     <g id="line2d_18">
      <g>
       <use style="stroke:#000000;stroke-width:0.8;" x="545.078099" xlink:href="#m38c813e64a" y="294.118125"/>
      </g>
     </g>
     <g id="text_17">
      <!-- 0 -->
      <g transform="translate(541.896849 308.716563)scale(0.1 -0.1)">
       <use xlink:href="#DejaVuSans-30"/>
      </g>
     </g>
    </g>
    <g id="xtick_9">
     <g id="line2d_19">
      <g>
       <use style="stroke:#000000;stroke-width:0.8;" x="604.106198" xlink:href="#m38c813e64a" y="294.118125"/>
      </g>
     </g>
     <g id="text_18">
      <!-- 20 -->
      <g transform="translate(597.743698 308.716563)scale(0.1 -0.1)">
       <use xlink:href="#DejaVuSans-32"/>
       <use x="63.623047" xlink:href="#DejaVuSans-30"/>
      </g>
     </g>
    </g>
    <g id="xtick_10">
     <g id="line2d_20">
      <g>
       <use style="stroke:#000000;stroke-width:0.8;" x="663.134298" xlink:href="#m38c813e64a" y="294.118125"/>
      </g>
     </g>
     <g id="text_19">
      <!-- 40 -->
      <g transform="translate(656.771798 308.716563)scale(0.1 -0.1)">
       <use xlink:href="#DejaVuSans-34"/>
       <use x="63.623047" xlink:href="#DejaVuSans-30"/>
      </g>
     </g>
    </g>
    <g id="xtick_11">
     <g id="line2d_21">
      <g>
       <use style="stroke:#000000;stroke-width:0.8;" x="722.162397" xlink:href="#m38c813e64a" y="294.118125"/>
      </g>
     </g>
     <g id="text_20">
      <!-- 60 -->
      <g transform="translate(715.799897 308.716563)scale(0.1 -0.1)">
       <use xlink:href="#DejaVuSans-36"/>
       <use x="63.623047" xlink:href="#DejaVuSans-30"/>
      </g>
     </g>
    </g>
    <g id="xtick_12">
     <g id="line2d_22">
      <g>
       <use style="stroke:#000000;stroke-width:0.8;" x="781.190496" xlink:href="#m38c813e64a" y="294.118125"/>
      </g>
     </g>
     <g id="text_21">
      <!-- 80 -->
      <g transform="translate(774.827996 308.716563)scale(0.1 -0.1)">
       <use xlink:href="#DejaVuSans-38"/>
       <use x="63.623047" xlink:href="#DejaVuSans-30"/>
      </g>
     </g>
    </g>
    <g id="xtick_13">
     <g id="line2d_23">
      <g>
       <use style="stroke:#000000;stroke-width:0.8;" x="840.218595" xlink:href="#m38c813e64a" y="294.118125"/>
      </g>
     </g>
     <g id="text_22">
      <!-- 100 -->
      <g transform="translate(830.674845 308.716563)scale(0.1 -0.1)">
       <use xlink:href="#DejaVuSans-31"/>
       <use x="63.623047" xlink:href="#DejaVuSans-30"/>
       <use x="127.246094" xlink:href="#DejaVuSans-30"/>
      </g>
     </g>
    </g>
    <g id="xtick_14">
     <g id="line2d_24">
      <g>
       <use style="stroke:#000000;stroke-width:0.8;" x="899.246694" xlink:href="#m38c813e64a" y="294.118125"/>
      </g>
     </g>
     <g id="text_23">
      <!-- 120 -->
      <g transform="translate(889.702944 308.716563)scale(0.1 -0.1)">
       <use xlink:href="#DejaVuSans-31"/>
       <use x="63.623047" xlink:href="#DejaVuSans-32"/>
       <use x="127.246094" xlink:href="#DejaVuSans-30"/>
      </g>
     </g>
    </g>
   </g>
   <g id="matplotlib.axis_4">
    <g id="ytick_9">
     <g id="line2d_25">
      <g>
       <use style="stroke:#000000;stroke-width:0.8;" x="526.631818" xlink:href="#mf2a552ea44" y="262.155304"/>
      </g>
     </g>
     <g id="text_24">
      <!-- 0 -->
      <g transform="translate(513.269318 265.954523)scale(0.1 -0.1)">
       <use xlink:href="#DejaVuSans-30"/>
      </g>
     </g>
    </g>
    <g id="ytick_10">
     <g id="line2d_26">
      <g>
       <use style="stroke:#000000;stroke-width:0.8;" x="526.631818" xlink:href="#mf2a552ea44" y="229.60796"/>
      </g>
     </g>
     <g id="text_25">
      <!-- 25 -->
      <g transform="translate(506.906818 233.407179)scale(0.1 -0.1)">
       <use xlink:href="#DejaVuSans-32"/>
       <use x="63.623047" xlink:href="#DejaVuSans-35"/>
      </g>
     </g>
    </g>
    <g id="ytick_11">
     <g id="line2d_27">
      <g>
       <use style="stroke:#000000;stroke-width:0.8;" x="526.631818" xlink:href="#mf2a552ea44" y="197.060616"/>
      </g>
     </g>
     <g id="text_26">
      <!-- 50 -->
      <g transform="translate(506.906818 200.859835)scale(0.1 -0.1)">
       <use xlink:href="#DejaVuSans-35"/>
       <use x="63.623047" xlink:href="#DejaVuSans-30"/>
      </g>
     </g>
    </g>
    <g id="ytick_12">
     <g id="line2d_28">
      <g>
       <use style="stroke:#000000;stroke-width:0.8;" x="526.631818" xlink:href="#mf2a552ea44" y="164.513272"/>
      </g>
     </g>
     <g id="text_27">
      <!-- 75 -->
      <g transform="translate(506.906818 168.312491)scale(0.1 -0.1)">
       <use xlink:href="#DejaVuSans-37"/>
       <use x="63.623047" xlink:href="#DejaVuSans-35"/>
      </g>
     </g>
    </g>
    <g id="ytick_13">
     <g id="line2d_29">
      <g>
       <use style="stroke:#000000;stroke-width:0.8;" x="526.631818" xlink:href="#mf2a552ea44" y="131.965928"/>
      </g>
     </g>
     <g id="text_28">
      <!-- 100 -->
      <g transform="translate(500.544318 135.765146)scale(0.1 -0.1)">
       <use xlink:href="#DejaVuSans-31"/>
       <use x="63.623047" xlink:href="#DejaVuSans-30"/>
       <use x="127.246094" xlink:href="#DejaVuSans-30"/>
      </g>
     </g>
    </g>
    <g id="ytick_14">
     <g id="line2d_30">
      <g>
       <use style="stroke:#000000;stroke-width:0.8;" x="526.631818" xlink:href="#mf2a552ea44" y="99.418583"/>
      </g>
     </g>
     <g id="text_29">
      <!-- 125 -->
      <g transform="translate(500.544318 103.217802)scale(0.1 -0.1)">
       <use xlink:href="#DejaVuSans-31"/>
       <use x="63.623047" xlink:href="#DejaVuSans-32"/>
       <use x="127.246094" xlink:href="#DejaVuSans-35"/>
      </g>
     </g>
    </g>
    <g id="ytick_15">
     <g id="line2d_31">
      <g>
       <use style="stroke:#000000;stroke-width:0.8;" x="526.631818" xlink:href="#mf2a552ea44" y="66.871239"/>
      </g>
     </g>
     <g id="text_30">
      <!-- 150 -->
      <g transform="translate(500.544318 70.670458)scale(0.1 -0.1)">
       <use xlink:href="#DejaVuSans-31"/>
       <use x="63.623047" xlink:href="#DejaVuSans-35"/>
       <use x="127.246094" xlink:href="#DejaVuSans-30"/>
      </g>
     </g>
    </g>
    <g id="ytick_16">
     <g id="line2d_32">
      <g>
       <use style="stroke:#000000;stroke-width:0.8;" x="526.631818" xlink:href="#mf2a552ea44" y="34.323895"/>
      </g>
     </g>
     <g id="text_31">
      <!-- 175 -->
      <g transform="translate(500.544318 38.123114)scale(0.1 -0.1)">
       <use xlink:href="#DejaVuSans-31"/>
       <use x="63.623047" xlink:href="#DejaVuSans-37"/>
       <use x="127.246094" xlink:href="#DejaVuSans-35"/>
      </g>
     </g>
    </g>
   </g>
   <g id="line2d_33">
    <path clip-path="url(#p055197530f)" d="M 545.078099 226.097049 
L 548.029504 226.099912 
L 550.980909 226.903331 
L 553.932314 226.921379 
L 556.883719 225.933288 
L 559.835124 225.915319 
L 562.786529 225.887916 
L 565.737934 225.890366 
L 568.689339 225.891442 
L 571.640744 225.889991 
L 574.592149 225.91668 
L 577.543554 225.91302 
L 580.494959 225.914262 
L 583.446364 235.303638 
L 586.397769 226.754715 
L 589.349174 217.425364 
L 592.300579 226.502879 
L 595.251983 226.501004 
L 598.203388 226.495438 
L 601.154793 226.489562 
L 604.106198 217.673579 
L 607.057603 217.662412 
L 610.009008 217.664214 
L 612.960413 226.853886 
L 615.911818 226.847774 
L 618.863223 226.867273 
L 621.814628 226.039849 
L 624.766033 226.042652 
L 627.717438 226.155577 
L 630.668843 226.149719 
L 633.620248 217.469429 
L 636.571653 217.481798 
L 639.523058 217.470316 
L 642.474463 209.260398 
L 645.425868 209.235554 
L 648.377273 209.234615 
L 651.328678 209.232561 
L 654.280083 209.234091 
L 657.231488 217.768786 
L 660.182893 218.264477 
L 663.134298 218.257559 
L 666.085702 208.845744 
L 669.037107 208.847866 
L 671.988512 208.856255 
L 674.939917 217.661898 
L 677.891322 209.141206 
L 680.842727 209.165648 
L 683.794132 199.742159 
L 686.745537 199.74108 
L 689.696942 190.907062 
L 692.648347 190.910155 
L 695.599752 182.390908 
L 698.551157 191.518691 
L 701.502562 182.555603 
L 704.453967 191.236008 
L 707.405372 191.227294 
L 710.356777 182.986696 
L 713.308182 182.623068 
L 716.259587 182.621144 
L 719.210992 173.239699 
L 722.162397 164.625644 
L 725.113802 164.628563 
L 728.065207 164.631842 
L 731.016612 173.474159 
L 733.968017 165.122579 
L 736.919421 165.888922 
L 739.870826 157.222919 
L 742.822231 157.213123 
L 745.773636 147.836228 
L 748.725041 147.30682 
L 751.676446 147.295011 
L 754.627851 156.714405 
L 757.579256 147.911296 
L 760.530661 156.729759 
L 763.482066 147.357683 
L 766.433471 155.852761 
L 769.384876 146.408504 
L 772.336281 155.376063 
L 775.287686 145.978266 
L 778.239091 145.978654 
L 781.190496 154.224978 
L 784.141901 154.34169 
L 787.093306 154.342539 
L 790.044711 163.728404 
L 792.996116 164.00862 
L 795.947521 155.826824 
L 798.898926 155.839682 
L 801.850331 155.828444 
L 804.801736 155.827584 
L 807.75314 156.243267 
L 810.704545 156.28045 
L 813.65595 156.284541 
L 816.607355 165.660867 
L 819.55876 165.465061 
L 822.510165 156.501944 
L 825.46157 148.204361 
L 828.412975 147.620214 
L 831.36438 147.614064 
L 834.315785 156.985808 
L 837.26719 156.992815 
L 840.218595 157.054813 
L 843.17 157.050296 
L 846.121405 157.588254 
L 849.07281 149.100231 
L 852.024215 140.825622 
L 854.97562 149.282958 
L 857.927025 139.889362 
L 860.87843 130.554498 
L 863.829835 138.88837 
L 866.78124 147.063939 
L 869.732645 147.065024 
L 872.68405 147.063194 
L 875.635455 146.509887 
L 878.58686 154.739741 
L 881.538264 163.365483 
L 884.489669 154.72332 
L 887.441074 145.321827 
L 890.392479 154.565326 
L 893.343884 154.27109 
L 896.295289 153.308715 
L 899.246694 162.700292 
L 902.198099 162.70747 
L 905.149504 153.484617 
L 908.100909 144.161469 
L 911.052314 144.076021 
L 914.003719 134.928326 
" style="fill:none;stroke:#1f77b4;stroke-linecap:square;stroke-width:1.5;"/>
   </g>
   <g id="line2d_34">
    <path clip-path="url(#p055197530f)" d="M 545.078099 261.955052 
L 548.029504 261.866185 
L 550.980909 281.76358 
L 553.932314 262.292514 
L 556.883719 40.120636 
L 559.835124 261.932207 
L 562.786529 261.852438 
L 565.737934 261.897741 
L 568.689339 262.055809 
L 571.640744 261.905736 
L 574.592149 262.42301 
L 577.543554 261.805774 
L 580.494959 261.830998 
L 583.446364 261.847362 
L 586.397769 56.948213 
L 589.349174 38.055993 
L 592.300579 261.947096 
L 595.251983 261.789678 
L 598.203388 261.87869 
L 601.154793 261.835587 
L 604.106198 50.48068 
L 607.057603 261.901008 
L 610.009008 261.849215 
L 612.960413 262.258053 
L 615.911818 261.808376 
L 618.863223 262.334157 
L 621.814628 261.905409 
L 624.766033 262.359793 
L 627.717438 42.830822 
L 630.668843 261.791615 
L 633.620248 53.525477 
L 636.571653 262.194593 
L 639.523058 261.780237 
L 642.474463 64.867722 
L 645.425868 261.826742 
L 648.377273 261.783242 
L 651.328678 261.781707 
L 654.280083 261.884083 
L 657.231488 261.780893 
L 660.182893 49.95256 
L 663.134298 261.781082 
L 666.085702 35.906108 
L 669.037107 261.929615 
L 671.988512 262.036922 
L 674.939917 261.816124 
L 677.891322 57.4044 
L 680.842727 262.435813 
L 683.794132 36.094312 
L 686.745537 261.782502 
L 689.696942 50.317724 
L 692.648347 261.97963 
L 695.599752 57.897874 
L 698.551157 261.897612 
L 701.502562 46.677503 
L 704.453967 261.855184 
L 707.405372 261.985456 
L 710.356777 64.005905 
L 713.308182 56.140628 
L 716.259587 261.780575 
L 719.210992 36.62857 
L 722.162397 55.04438 
L 725.113802 261.954148 
L 728.065207 261.859576 
L 731.016612 262.168177 
L 733.968017 61.343157 
L 736.919421 54.298338 
L 739.870826 53.945549 
L 742.822231 261.801806 
L 745.773636 36.770647 
L 748.725041 44.698619 
L 751.676446 262.152389 
L 754.627851 262.159774 
L 757.579256 50.507875 
L 760.530661 261.960843 
L 763.482066 37.049815 
L 766.433471 261.779731 
L 769.384876 35.235455 
L 772.336281 261.898923 
L 775.287686 36.308043 
L 778.239091 261.994763 
L 781.190496 261.917695 
L 784.141901 58.941718 
L 787.093306 261.800947 
L 790.044711 261.889338 
L 792.996116 61.769546 
L 795.947521 65.591058 
L 798.898926 262.168157 
L 801.850331 261.898461 
L 804.801736 61.322537 
L 807.75314 64.274722 
L 810.704545 54.837939 
L 813.65595 261.89998 
L 816.607355 261.802486 
L 819.55876 39.999279 
L 822.510165 47.037582 
L 825.46157 63.017764 
L 828.412975 36.488361 
L 831.36438 261.813234 
L 834.315785 261.971669 
L 837.26719 261.947911 
L 840.218595 36.723407 
L 843.17 261.790503 
L 846.121405 49.219033 
L 849.07281 58.282209 
L 852.024215 63.327087 
L 854.97562 261.91777 
L 857.927025 36.354647 
L 860.87843 37.852612 
L 863.829835 261.782462 
L 866.78124 261.804721 
L 869.732645 262.194211 
L 872.68405 261.854534 
L 875.635455 48.043165 
L 878.58686 261.791218 
L 881.538264 261.855755 
L 884.489669 54.488051 
L 887.441074 36.166662 
L 890.392479 261.84325 
L 893.343884 39.975917 
L 896.295289 39.920771 
L 899.246694 261.886209 
L 902.198099 261.985496 
L 905.149504 40.623209 
L 908.100909 38.192349 
L 911.052314 34.67267 
L 914.003719 42.245808 
" style="fill:none;opacity:0.2;stroke:#1f77b4;stroke-linecap:square;stroke-width:1.5;"/>
   </g>
   <g id="patch_8">
    <path d="M 526.631818 294.118125 
L 526.631818 22.318125 
" style="fill:none;stroke:#000000;stroke-linecap:square;stroke-linejoin:miter;stroke-width:0.8;"/>
   </g>
   <g id="patch_9">
    <path d="M 932.45 294.118125 
L 932.45 22.318125 
" style="fill:none;stroke:#000000;stroke-linecap:square;stroke-linejoin:miter;stroke-width:0.8;"/>
   </g>
   <g id="patch_10">
    <path d="M 526.631818 294.118125 
L 932.45 294.118125 
" style="fill:none;stroke:#000000;stroke-linecap:square;stroke-linejoin:miter;stroke-width:0.8;"/>
   </g>
   <g id="patch_11">
    <path d="M 526.631818 22.318125 
L 932.45 22.318125 
" style="fill:none;stroke:#000000;stroke-linecap:square;stroke-linejoin:miter;stroke-width:0.8;"/>
   </g>
   <g id="text_32">
    <!-- Episodic Return -->
    <defs>
     <path d="M 48.78125 52.59375 
L 48.78125 44.1875 
Q 44.96875 46.296875 41.140625 47.34375 
Q 37.3125 48.390625 33.40625 48.390625 
Q 24.65625 48.390625 19.8125 42.84375 
Q 14.984375 37.3125 14.984375 27.296875 
Q 14.984375 17.28125 19.8125 11.734375 
Q 24.65625 6.203125 33.40625 6.203125 
Q 37.3125 6.203125 41.140625 7.25 
Q 44.96875 8.296875 48.78125 10.40625 
L 48.78125 2.09375 
Q 45.015625 0.34375 40.984375 -0.53125 
Q 36.96875 -1.421875 32.421875 -1.421875 
Q 20.0625 -1.421875 12.78125 6.34375 
Q 5.515625 14.109375 5.515625 27.296875 
Q 5.515625 40.671875 12.859375 48.328125 
Q 20.21875 56 33.015625 56 
Q 37.15625 56 41.109375 55.140625 
Q 45.0625 54.296875 48.78125 52.59375 
z
" id="DejaVuSans-63"/>
     <path d="M 44.390625 34.1875 
Q 47.5625 33.109375 50.5625 29.59375 
Q 53.5625 26.078125 56.59375 19.921875 
L 66.609375 0 
L 56 0 
L 46.6875 18.703125 
Q 43.0625 26.03125 39.671875 28.421875 
Q 36.28125 30.8125 30.421875 30.8125 
L 19.671875 30.8125 
L 19.671875 0 
L 9.8125 0 
L 9.8125 72.90625 
L 32.078125 72.90625 
Q 44.578125 72.90625 50.734375 67.671875 
Q 56.890625 62.453125 56.890625 51.90625 
Q 56.890625 45.015625 53.6875 40.46875 
Q 50.484375 35.9375 44.390625 34.1875 
z
M 19.671875 64.796875 
L 19.671875 38.921875 
L 32.078125 38.921875 
Q 39.203125 38.921875 42.84375 42.21875 
Q 46.484375 45.515625 46.484375 51.90625 
Q 46.484375 58.296875 42.84375 61.546875 
Q 39.203125 64.796875 32.078125 64.796875 
z
" id="DejaVuSans-52"/>
     <path d="M 8.5 21.578125 
L 8.5 54.6875 
L 17.484375 54.6875 
L 17.484375 21.921875 
Q 17.484375 14.15625 20.5 10.265625 
Q 23.53125 6.390625 29.59375 6.390625 
Q 36.859375 6.390625 41.078125 11.03125 
Q 45.3125 15.671875 45.3125 23.6875 
L 45.3125 54.6875 
L 54.296875 54.6875 
L 54.296875 0 
L 45.3125 0 
L 45.3125 8.40625 
Q 42.046875 3.421875 37.71875 1 
Q 33.40625 -1.421875 27.6875 -1.421875 
Q 18.265625 -1.421875 13.375 4.4375 
Q 8.5 10.296875 8.5 21.578125 
z
M 31.109375 56 
z
" id="DejaVuSans-75"/>
     <path d="M 41.109375 46.296875 
Q 39.59375 47.171875 37.8125 47.578125 
Q 36.03125 48 33.890625 48 
Q 26.265625 48 22.1875 43.046875 
Q 18.109375 38.09375 18.109375 28.8125 
L 18.109375 0 
L 9.078125 0 
L 9.078125 54.6875 
L 18.109375 54.6875 
L 18.109375 46.1875 
Q 20.953125 51.171875 25.484375 53.578125 
Q 30.03125 56 36.53125 56 
Q 37.453125 56 38.578125 55.875 
Q 39.703125 55.765625 41.0625 55.515625 
z
" id="DejaVuSans-72"/>
    </defs>
    <g transform="translate(682.514972 16.318125)scale(0.12 -0.12)">
     <use xlink:href="#DejaVuSans-45"/>
     <use x="63.183594" xlink:href="#DejaVuSans-70"/>
     <use x="126.660156" xlink:href="#DejaVuSans-69"/>
     <use x="154.443359" xlink:href="#DejaVuSans-73"/>
     <use x="206.542969" xlink:href="#DejaVuSans-6f"/>
     <use x="267.724609" xlink:href="#DejaVuSans-64"/>
     <use x="331.201172" xlink:href="#DejaVuSans-69"/>
     <use x="358.984375" xlink:href="#DejaVuSans-63"/>
     <use x="413.964844" xlink:href="#DejaVuSans-20"/>
     <use x="445.751953" xlink:href="#DejaVuSans-52"/>
     <use x="515.171875" xlink:href="#DejaVuSans-65"/>
     <use x="576.695312" xlink:href="#DejaVuSans-74"/>
     <use x="615.904297" xlink:href="#DejaVuSans-75"/>
     <use x="679.283203" xlink:href="#DejaVuSans-72"/>
     <use x="720.380859" xlink:href="#DejaVuSans-6e"/>
    </g>
   </g>
  </g>
 </g>
 <defs>
  <clipPath id="pfd12fe4e26">
   <rect height="271.8" width="405.818182" x="39.65" y="22.318125"/>
  </clipPath>
  <clipPath id="p055197530f">
   <rect height="271.8" width="405.818182" x="526.631818" y="22.318125"/>
  </clipPath>
 </defs>
</svg>
